<?xml version="1.0" encoding="utf-8"?>
<svg version="1.1" xmlns:xlink="http://www.w3.org/1999/xlink" width="24px" height="24px" xmlns="http://www.w3.org/2000/svg">
  <g transform="matrix(1 0 0 1 -331 -113 )">
    <path d="M 23.0429315708705 23.0861270758929  C 23.3712173939732 22.7837584905134  23.3884955859375 22.2740515011161  23.0861270507813 21.9500852008929  L 19.2546855217634 17.8508315206473  C 20.8097238030134 15.9804660351562  21.6606753097098 13.6479086132812  21.6606753097098 11.194403797433  C 21.6606753097098 5.43644263392857  16.9739627260045 0.749730050223215  11.2116820145089 0.749730050223215  C 5.45372085100445 0.749730050223215  0.767008267299104 5.43644263392857  0.767008267299104 11.194403797433  C 0.767008267299104 16.9523649609375  5.45372085100445 21.6390775446429  11.2116820145089 21.6390775446429  C 12.7192052427455 21.6390775446429  14.1748938448661 21.3237503404018  15.5355523409598 20.7017350279018  C 15.9415901032366 20.5159943387277  16.1186916964286 20.0408437583705  15.9329510072545 19.6391255440848  C 15.7472103180804 19.233087781808  15.2720597377232 19.0559861886161  14.8703415234375 19.2417268777902  C 13.7170214564732 19.7643925111607  12.485949500558 20.0322046623884  11.2116820145089 20.0322046623884  C 6.33922874162948 20.0322046623884  2.3738811495536 16.0668570703125  2.3738811495536 11.194403797433  C 2.3738811495536 6.32195052455357  6.33922874162948 2.35660293247768  11.2116820145089 2.35660293247768  C 16.0841352873884 2.35660293247768  20.0494828794643 6.32195052455357  20.0494828794643 11.194403797433  C 20.0494828794643 13.4880852622768  19.1726140848214 15.6608192829241  17.5873389425223 17.3152072433036  C 17.2806508342634 17.6348539955357  17.2892899302456 18.144560984933  17.6089367075893 18.451249093192  C 17.6348540206473 18.4728468582589  17.6650908565848 18.4814859542411  17.6910081696428 18.5030836941964  C 17.7126059347098 18.5333205552455  17.725564578683 18.5721965122768  17.7514818917411 18.6024333733259  L 21.9068897209821 23.0472511188616  C 22.0623935491071 23.2157135909598  22.2783710993303 23.3021046261161  22.494348624442 23.3021046261161  C 22.6930479575893 23.3021046261161  22.8874277427456 23.2286722600446  23.0429315708705 23.0861270758929  Z " fill-rule="nonzero" fill="#2ab795" stroke="none" transform="matrix(1 0 0 1 331 113 )" />
  </g>
</svg>