<?xml version="1.0" encoding="utf-8"?>
<svg version="1.1" xmlns:xlink="http://www.w3.org/1999/xlink" width="22px" height="14px" xmlns="http://www.w3.org/2000/svg">
  <g transform="matrix(1 0 0 1 -86 -262 )">
    <path d="M 21.41597 6.12496  C 20.01746 4.70851  16.1648 0.46  10.86137 0.46  C 5.69564 0.46  2.44649 4.08871  0.6419 5.9002  C 0.08117 6.46258  0.0700400000000001 7.61065  0.51794 8.07565  C 2.57726 10.20928  5.79056 13.59016  10.86137 13.59016  C 16.97678 13.59016  20.02601 9.85972  21.35105 8.3698  C 21.95375 7.6927  21.82544 6.5404  21.41597 6.12496  Z M 10.99907 11.75395  C 8.28581 11.75395  6.08633 9.6529  6.08633 7.06093  C 6.08633 4.46908  8.28581 2.36791  10.99907 2.36791  C 13.7123 2.36791  15.91178 4.46908  15.91178 7.06093  C 15.91181 9.6529  13.71218 11.75395  10.99907 11.75395  Z M 10.99907 4.25371  C 9.37565 4.25371  8.06012 5.51032  8.06012 7.06093  C 8.06012 8.61166  9.37565 9.86824  10.99907 9.86824  C 12.62153 9.86824  13.93706 8.61166  13.93706 7.06093  C 13.93706 5.51032  12.62153 4.25371  10.99907 4.25371  Z " fill-rule="nonzero" fill="#999999" stroke="none" transform="matrix(1 0 0 1 86 262 )" />
  </g>
</svg>