<?xml version="1.0" encoding="utf-8"?>
<svg version="1.1" xmlns:xlink="http://www.w3.org/1999/xlink" width="24px" height="21px" xmlns="http://www.w3.org/2000/svg">
  <g transform="matrix(1 0 0 1 -103 -259 )">
    <path d="M 23.265 18.57  C 23.28 19.695  22.38 20.595  21.285 20.595  L 2.955 20.595  C 1.845 20.595  0.945 19.695  1 18.585  L 1 2.175  C 0.945 1.065  1.845 0.165000000000001  2.955 0.165000000000001  L 4.635 0.165000000000001  C 5.115 0.165000000000001  5.49 0.555000000000001  5.49 1.02  C 5.49 1.5  5.1 1.875  4.635 1.875  L 2.955 1.875  C 2.805 1.875  2.67 2.01  3 2.16  L 3 18.57  C 2.67 18.72  2.805 18.855  2.955 18.855  L 21.27 18.855  C 21.42 18.855  21.555 18.72  21.555 18.57  L 21.555 16.89  C 21.555 16.41  21.945 16.035  22.41 16.035  C 22.875 16.035  23.265 16.425  23.265 16.89  L 23.265 18.57  Z " fill-rule="nonzero" fill="#666666" stroke="none" transform="matrix(1 0 0 1 103 259 )" />
  </g>
</svg>