<?xml version="1.0" encoding="utf-8"?>
<svg version="1.1" xmlns:xlink="http://www.w3.org/1999/xlink" width="6px" height="9px" xmlns="http://www.w3.org/2000/svg">
  <g transform="matrix(1 0 0 1 -121 -259 )">
    <path d="M 5.29499999999999 7.695  C 5.28 8.145  4.905 8.535  4.425 8.535  C 3.945 8.535  3.57 8.145  3.57 7.68  L 3.57 2.175  C 3.57 2.025  3.435 1.89  3.285 1.89  L 1.515 1.89  C 1.035 1.89  0.66 1.5  0.66 1.035  C 0.66 0.555000000000001  1.05 0.180000000000001  1.515 0.180000000000001  L 3.285 0.180000000000001  C 4.395 0.180000000000001  5.29499999999999 1.08  5.29499999999999 2.19  L 5.29499999999999 7.695  Z " fill-rule="nonzero" fill="#666666" stroke="none" transform="matrix(1 0 0 1 121 259 )" />
  </g>
</svg>