<?xml version="1.0" encoding="utf-8"?>
<svg version="1.1" xmlns:xlink="http://www.w3.org/1999/xlink" width="27px" height="30px" xmlns="http://www.w3.org/2000/svg">
  <g transform="matrix(1 0 0 1 -172 -254 )">
    <path d="M 13.6607306936416 29.6626762716763  C 13.5209185099927 29.7503457203354  13.3593514180375 29.7971151419543  13.1943270231214 29.7976878612717  C 12.702051513709 29.7940964051655  12.3048776129885 29.3940143038722  12.3048776129885 28.9017256936808  C 12.3048776129885 28.5919892152039  12.4648512121616 28.3042197541094  12.7279233236994 28.1407273988439  L 17.306043699422 25.3300315317919  C 17.4603765911456 25.2156795037591  17.6473729473777 25.1539515350439  17.8394537319007 25.1539515350439  C 18.3342931421474 25.1539515350439  18.7354397434614 25.5550981363579  18.7354397434614 26.0499375466046  C 18.7354397434614 26.3898353551843  18.5431109534324 26.7004665373313  18.2388510693642 26.8519803757225  L 13.6607306936416 29.6626762716763  Z M 13.5870880057803 14.7009370520231  C 13.4653736580819 14.7632038471513  13.3310240568715 14.7967912523971  13.1943270231214 14.7991273121387  C 13.0493280066263 14.8006481994699  12.9061262765515 14.7669536729962  12.7770184393064 14.7009370520231  L 0.478689739884393 8.17128549132948  C 0.18897012633924 8.01485769966538  0.00838668585421732 7.71213124814347  0.00838668585421732 7.38287890042571  C 0.00838668585421732 7.04863915839767  0.194428864159172 6.74218639095993  0.490963526011561 6.58796771676301  L 12.7647446820809 0.30379176300578  C 13.022161375428 0.168483317864638  13.3296713124332 0.168483317864638  13.5870880057803 0.30379176300578  L 25.8608691618497 6.83344332369942  C 26.1539699488199 6.98879575221373  26.3372516234994 7.29337574479731  26.3372516234994 7.62510221098266  C 26.3372516234994 7.956828677168  26.1539699488199 8.26140866975159  25.8608691618497 8.41676109826589  L 13.5870880057803 14.7009370520231  Z M 13.1820532369942 2.10803760115607  L 2.83525572254335 7.43485861271676  L 13.2066007803468 12.9335125722543  L 23.5533982947977 7.56987020231214  L 13.1820532369942 2.10803760115607  Z " fill-rule="nonzero" fill="#666666" stroke="none" transform="matrix(1 0 0 1 172 254 )" />
  </g>
</svg>