<?xml version="1.0" encoding="utf-8"?>
<svg version="1.1" xmlns:xlink="http://www.w3.org/1999/xlink" width="23px" height="9px" xmlns="http://www.w3.org/2000/svg">
  <g transform="matrix(1 0 0 1 -174 -265 )">
    <path d="M 8.02647624705205 4.32700145673545  C 8.02647624705205 4.8165810674132  7.63350334553819 5.21551535039431  7.14397921965318 5.22288592485549  C 7.00196200667521 5.23641309247555  6.858780930007 5.21535704303932  6.72667066473988 5.16151699421965  L 1.35075453757225 2.26490465317919  C 1.03510521912287 2.1177721113833  0.833307793890537 1.80106558097813  0.833307793890537 1.45280924278329  C 0.833307793890537 0.9579698325366  1.23445439520454 0.556823231222594  1.72929380545123 0.556823231222594  C 1.88974872888529 0.556823231222594  2.04725964141108 0.599911568657593  2.18537164739884 0.681586878612716  L 7.5612878034682 3.54137789017341  C 7.84815442325116 3.69868152437706  8.02647624705205 3.99983652756459  8.02647624705205 4.32700145673545  Z M 21.5656720809249 8.36497387283237  L 21.5656720809249 8.43861656069365  C 21.4548670187292 8.44063577940174  21.3452689876225 8.41534392683297  21.2465537572254 8.36497387283237  L 18.9022615606936 7.13759578034682  C 18.6733181348188 7.01854519975445  18.5296785192765 6.78195348477669  18.5296785192765 6.52390671965318  C 18.5296785192765 6.14189061224317  18.8393637625322 5.83220536898752  19.2213798699422 5.83220536898752  C 19.3324739444881 5.83220536898752  19.441933649584 5.85896410393537  19.5404981791908 5.91021765895954  L 21.8847904046243 7.13759578034682  C 22.0672455309737 7.26363835630321  22.1761596219957 7.47125314221828  22.1761596219957 7.69301112760981  C 22.1761596219957 8.04082375725846  21.9118899428668 8.3317050072755  21.5656720809249 8.36497387283237  Z " fill-rule="nonzero" fill="#666666" stroke="none" transform="matrix(1 0 0 1 174 265 )" />
  </g>
</svg>