<?xml version="1.0" encoding="utf-8"?>
<svg version="1.1" xmlns:xlink="http://www.w3.org/1999/xlink" width="24px" height="24px" xmlns="http://www.w3.org/2000/svg">
  <g transform="matrix(1 0 0 1 -17 -98 )">
    <path d="M 23.25 12  C 23.25 18.2035584709821  18.2035584709821 23.25  12 23.25  C 5.79644152901786 23.25  0.75 18.2035584709821  0.75 12  C 0.75 5.79644152901786  5.79644152901786 0.75  12 0.75  C 18.2035584709821 0.75  23.25 5.79644152901786  23.25 12  Z M 21.6428571428571 12  C 21.6428571428571 6.68275673270088  17.3172432672991 2.35714285714286  12 2.35714285714286  C 6.68275673270089 2.35714285714286  2.35714285714286 6.6827567327009  2.35714285714286 12  C 2.35714285714286 17.3172432672991  6.68275673270089 21.6428571428571  12 21.6428571428571  C 17.3172432672991 21.6428571428571  21.6428571428571 17.3172432672991  21.6428571428571 12  Z " fill-rule="nonzero" fill="#cccccc" stroke="none" transform="matrix(1 0 0 1 17 98 )" />
  </g>
</svg>