<?xml version="1.0" encoding="utf-8"?>
<svg version="1.1" xmlns:xlink="http://www.w3.org/1999/xlink" width="18px" height="18px" xmlns="http://www.w3.org/2000/svg">
  <g transform="matrix(1 0 0 1 -225 -10 )">
    <path d="M 15.9046875 13.1625  C 17.4703125 12.496875  18.20625 10.6875  17.55 9.1265625  C 17.23125 8.3671875  16.6359375 7.78125  15.8765625 7.471875  C 15.3609375 7.2609375  14.8125 7.209375  14.2734375 7.2890625  L 14.2734375 6.365625  L 0.2109375 6.365625  L 0.2109375 7.246875  C 0.2109375 10.3921875  1.85625 13.10625  4.2234375 14.38125  L 2.971875 16.4625  C 2.8078125 16.734375  2.803125 17.071875  2.9625 17.3484375  C 3.1171875 17.625  3.4125 17.79375  3.7265625 17.79375  L 10.7578125 17.79375  C 11.0765625 17.79375  11.3671875 17.625  11.521875 17.3484375  C 11.6765625 17.071875  11.671875 16.734375  11.5125 16.4625  L 10.2609375 14.38125  C 11.1234375 13.9171875  11.8875 13.265625  12.5109375 12.4640625  C 13.0921875 13.059375  13.884375 13.4015625  14.7140625 13.4015625  C 15.1125 13.4015625  15.515625 13.321875  15.9046875 13.1625  Z M 15.928125 9.80625  C 16.209375 10.4765625  15.8953125 11.2546875  15.225 11.5359375  C 14.5546875 11.8171875  13.78125 11.503125  13.5 10.8328125  C 13.74375 10.2984375  13.93125 9.7265625  14.0625 9.13125  C 14.109375 9.121875  14.15625 9.121875  14.203125 9.103125  C 14.5265625 8.9671875  14.8875 8.9671875  15.2109375 9.0984375  C 15.5390625 9.2296875  15.7921875 9.48281249999999  15.928125 9.80625  Z M 1.96875 4.6078125  L 1.96875 0.2109375  L 3.7265625 0.2109375  L 3.7265625 4.6078125  L 1.96875 4.6078125  Z M 6.365625 4.6078125  L 6.365625 0.2109375  L 8.1234375 0.2109375  L 8.1234375 4.6078125  L 6.365625 4.6078125  Z M 10.7578125 4.6078125  L 10.7578125 0.2109375  L 12.515625 0.2109375  L 12.515625 4.6078125  L 10.7578125 4.6078125  Z " fill-rule="nonzero" fill="#666666" stroke="none" transform="matrix(1 0 0 1 225 10 )" />
  </g>
</svg>