<?xml version="1.0" encoding="utf-8"?>
<svg version="1.1" xmlns:xlink="http://www.w3.org/1999/xlink" width="23px" height="20px" xmlns="http://www.w3.org/2000/svg">
  <g transform="matrix(1 0 0 1 -17 -593 )">
    <path d="M 18.7425955273437 19.1211998339844  C 18.6863536425781 19.3027866992188  18.5578008007813 19.4200671875  18.4160868945313 19.4200671875  L 4.12924337890625 19.4200671875  C 3.98734958984375 19.4200671875  3.85882671875 19.3027866992188  3.80288465820313 19.1211998339844  L 0.4975356640625 8.41509857421875  C 0.4401545703125 8.22865499023438  0.470793798828125 8.0124715625  0.574853251953125 7.87015803710937  C 0.678762792968749 7.72730489257812  0.834986884765625 7.68794158203125  0.968696240234375 7.77092530273437  C 1.00413221679687 7.79281047851562  4.5410741796875 9.9667865234375  6.1063429296875 9.965917109375  C 6.174636640625 9.965917109375  6.23921284179688 9.9619298046875  6.29866252929688 9.952096484375  C 7.25933120117187 9.7963520703125  9.60137328125 4.63987815429688  10.95786359375 1.02825684570313  C 11.0188722265625 0.865167412109376  11.1404997558594 0.763056640625001  11.2726501660156 0.763056640625001  C 11.4049204882812 0.763056640625001  11.5262781933594 0.865167412109376  11.5875866503906 1.02825684570313  C 12.9438970800781 4.63987815429688  15.2859391601563 9.7963520703125  16.2462180957031 9.952096484375  C 16.3063873144531 9.9619298046875  16.3705138085937 9.965917109375  16.4391073144531 9.965917109375  C 18.005365390625 9.965917109375  21.5413180273438 7.79284044921875  21.5767839746094 7.77092530273437  C 21.7103434179687 7.68794155273437  21.8666574511719 7.72730486328125  21.970716875 7.87015803710937  C 22.0745065039063 8.0124715625  22.1051157617188 8.22865499023438  22.0477346679688 8.41509857421875  L 18.7425955273437 19.1211998339844  Z M 1.49759764648437 9.15073982421875  L 4.36362447265625 18.434545390625  L 18.1819156835938 18.434545390625  L 21.0477926269531 9.15073982421875  C 19.7655619824219 9.873999453125  17.3271052636719 11.1207341796875  16.1635041699219 10.9312626171875  C 14.6900931347656 10.6919648632812  12.2420129492187 4.790316171875  11.2726201953125 2.30542094726562  C 10.3033173828125 4.79028620117187  7.85514725585938 10.6919348925781  6.38128651367187 10.9312626171875  C 5.2215528125 11.1195649414062  2.77925870117187 9.873999453125  1.49759764648437 9.15073982421875  Z " fill-rule="nonzero" fill="#666666" stroke="none" transform="matrix(1 0 0 1 17 593 )" />
  </g>
</svg>