<?xml version="1.0" encoding="utf-8"?>
<svg version="1.1" xmlns:xlink="http://www.w3.org/1999/xlink" width="5px" height="5px" xmlns="http://www.w3.org/2000/svg">
  <g transform="matrix(1 0 0 1 -26 -589 )">
    <path d="M 4.26387010742187 2.22054046875  C 4.26387010742187 3.31857600585937  3.37053579101562 4.21194029296875  2.27262016601562 4.21194029296875  C 1.17470454101562 4.21194029296875  0.281400224609374 3.31857600585937  0.281400224609374 2.22054046875  C 0.281400224609374 1.12277475585938  1.17473454101562 0.229410468750001  2.27262016601562 0.229410468750001  C 3.37053579101562 0.229410468750001  4.26387010742187 1.12277475585938  4.26387010742187 2.22054046875  Z M 3.32115924804688 2.22057046875  C 3.32112927734375 1.64241243164063  2.85086811523438 1.17200138671875  2.27262016601562 1.17200138671875  C 1.69434224609375 1.17200138671875  1.22390120117188 1.6424124609375  1.22390120117188 2.22057046875  C 1.22390120117188 2.79869850585937  1.69434224609375 3.26940934570312  2.27262016601562 3.26940934570312  C 2.85086811523438 3.26940934570312  3.32115924804688 2.7986984765625  3.32115924804688 2.22057046875  Z " fill-rule="nonzero" fill="#666666" stroke="none" transform="matrix(1 0 0 1 26 589 )" />
  </g>
</svg>