<?xml version="1.0" encoding="utf-8"?>
<svg version="1.1" xmlns:xlink="http://www.w3.org/1999/xlink" width="20px" height="20px" xmlns="http://www.w3.org/2000/svg">
  <g transform="matrix(1 0 0 1 -130 -9 )">
    <path d="M 9.5 3.5  C 9.5 1.85  8.15 0.5  6.5 0.5  L 3.5 0.5  C 1.85 0.5  0.5 1.85  0.5 3.5  L 0.5 6.5  C 0.5 8.15  1.85 9.5  3.5 9.5  L 6.5 9.5  C 8.15 9.5  9.5 8.15  9.5 6.5  L 9.5 3.5  Z M 20 3.5  C 20 1.85  18.65 0.5  17 0.5  L 14 0.5  C 12.35 0.5  11 1.85  11 3.5  L 11 6.5  C 11 8.15  12.35 9.5  14 9.5  L 17 9.5  C 18.65 9.5  20 8.15  20 6.5  L 20 3.5  Z M 9.5 14  C 9.5 12.35  8.15 11  6.5 11  L 3.5 11  C 1.85 11  0.5 12.35  0.5 14  L 0.5 17  C 0.5 18.65  1.85 20  3.5 20  L 6.5 20  C 8.15 20  9.5 18.65  9.5 17  L 9.5 14  Z M 20 14  C 20 12.35  18.65 11  17 11  L 14 11  C 12.35 11  11 12.35  11 14  L 11 17  C 11 18.65  12.35 20  14 20  L 17 20  C 18.65 20  20 18.65  20 17  L 20 14  Z " fill-rule="nonzero" fill="#666666" stroke="none" transform="matrix(1 0 0 1 130 9 )" />
  </g>
</svg>