<?xml version="1.0" encoding="utf-8"?>
<svg version="1.1" xmlns:xlink="http://www.w3.org/1999/xlink" width="24px" height="28px" xmlns="http://www.w3.org/2000/svg">
  <g transform="matrix(1 0 0 1 -129 -180 )">
    <path d="M 9.504375 26.0703125  C 9.32625 26.2296875  9.103125 26.3084375  8.8809375 26.3084375  C 8.623125 26.3084375  8.36625 26.2034375  8.180625 25.9953125  C 5.7421875 23.264375  1.798125 23.238125  1.7165625 23.238125  C 1.71375 23.238125  1.71375 23.238125  1.7109375 23.238125  C 1.19625 23.238125  0.776250000000001 22.8228125  0.772500000000001 22.308125  C 0.768750000000001 21.790625  1.183125 21.36875  1.6996875 21.363125  C 1.8946875 21.3528125  6.553125 21.3575  9.579375 24.7465625  C 9.924375 25.1328125  9.890625 25.7253125  9.504375 26.0703125  Z M 15.855 26.005625  C 15.67125 26.20625  15.4190625 26.3065625  15.1678125 26.3065625  C 14.94 26.3065625  14.71125 26.2240625  14.5303125 26.05625  C 14.150625 25.7046875  14.1271875 25.11125  14.4796875 24.7315625  C 17.61375 21.3471875  22.1775 21.3509375  22.3575 21.3584375  C 22.8759375 21.3640625  23.29125 21.7878125  23.285625 22.3053125  C 23.28 22.82  22.861875 23.2334375  22.348125 23.2334375  C 22.3453125 23.2334375  22.3434375 23.2334375  22.340625 23.2334375  C 22.2628125 23.2334375  18.3984375 23.25875  15.855 26.005625  Z M 13.7915625 21.4990625  C 13.7025 21.5234375  13.610625 21.5384375  13.515 21.5384375  L 10.5440625 21.5384375  C 10.449375 21.5384375  10.3575 21.524375  10.2703125 21.4971875  C 7.09875 21.0903125  4.4034375 19.25  2.66625 16.29875  C 0.6496875 12.87125  0.1875 8.4303125  1.5178125 5.2475  C 1.66125 4.9053125  1.993125 4.679375  2.364375 4.671875  L 2.6465625 4.6690625  C 4.4325 4.6690625  6.1003125 5.0065625  7.618125 5.6740625  C 8.715 3.66875  9.9675 2.1471875  11.3484375 1.1421875  C 11.4215625 1.0784375  11.505 1.025  11.5978125 0.985625  C 11.8875 0.86  12.2240625 0.8871875  12.489375 1.0596875  C 12.5353125 1.0896875  12.5784375 1.1234375  12.6178125 1.1609375  C 14.0025 2.1771875  15.2203125 3.67625  16.3228125 5.72375  C 17.870625 5.024375  19.576875 4.67  21.4096875 4.67  L 21.6965625 4.6728125  C 22.0678125 4.6803125  22.3996875 4.90625  22.543125 5.2484375  C 23.8734375 8.4321875  23.4121875 12.873125  21.39375 16.300625  C 19.6565625 19.25  16.9621875 21.09125  13.7915625 21.4990625  Z M 10.6490625 19.6540625  C 10.6696875 19.656875  10.6903125 19.6596875  10.7109375 19.6634375  L 13.348125 19.6634375  C 13.3678125 19.6596875  13.3884375 19.656875  13.4090625 19.6540625  C 16.7990625 19.2771875  18.7434375 17.103125  19.7775 15.3471875  C 21.3609375 12.655625  21.8409375 9.138125  21.0234375 6.54875  C 19.3171875 6.6040625  17.7534375 7.0221875  16.370625 7.7946875  C 16.1446875 7.9203125  15.8775 7.9465625  15.6328125 7.8715625  C 15.3871875 7.7946875  15.18375 7.619375  15.0703125 7.3878125  C 14.1196875 5.4434375  13.100625 4.0128125  11.97 3.0378125  C 10.8384375 4.0109375  9.796875 5.451875  8.866875 7.3325  C 8.7534375 7.56125  8.5528125 7.73375  8.3090625 7.810625  C 8.0653125 7.8884375  7.8028125 7.8621875  7.5778125 7.7403125  C 6.2240625 7.004375  4.696875 6.6040625  3.0365625 6.5496875  C 2.2190625 9.1390625  2.6990625 12.6565625  4.2825 15.3471875  C 5.3165625 17.103125  7.26 19.27625  10.6490625 19.6540625  Z M 12.96 26.1875  C 12.9590625 26.7059375  12.54 27.125  12.0225 27.125  C 11.505 27.125  11.085 26.7059375  11.085 26.1875  L 11.085 20.6009375  C 11.085 20.0825  11.505 19.6634375  12.0225 19.6634375  C 12.54 19.6634375  12.96 20.0825  12.96 20.6009375  L 12.96 26.1875  Z " fill-rule="nonzero" fill="#fd994b" stroke="none" transform="matrix(1 0 0 1 129 180 )" />
  </g>
</svg>