<?xml version="1.0" encoding="utf-8"?>
<svg version="1.1" xmlns:xlink="http://www.w3.org/1999/xlink" width="26px" height="26px" xmlns="http://www.w3.org/2000/svg">
  <g transform="matrix(1 0 0 1 -222 -182 )">
    <path d="M 25.126313359375 6.48283864257813  C 25.126313359375 6.04552512695312  24.7721934472656 5.69074568359375  24.3348799609375 5.69074568359375  L 19.0393603222656 5.69074568359375  C 19.3651494238281 5.13459276367187  19.5333054296875 4.49218829101563  19.5333054296875 3.864593828125  C 19.5333054296875 2.21088504882812  18.3950971386719 0.536880009765625  16.2178832910156 0.536880009765625  C 15.2114956152344 0.536880009765625  14.3560256347656 0.887312412109375  13.6747975 1.57957307617187  C 13.3089855273437 1.9503616796875  13.0306242578125 2.39442059570312  12.8125520898438 2.860034921875  C 12.5994865527344 2.39502021484375  12.3259819726562 1.95219044921875  11.9663158398438 1.58143181640625  C 11.291263515625 0.88788203125  10.4400806347656 0.5368500390625  9.43429254882813 0.5368500390625  C 8.14459697265625 0.5368500390625  7.366714375 1.11210000976563  6.94109294921875 1.5949826171875  C 6.41081248046875 2.19610506835938  6.11887041015625 3.00168885742187  6.11887041015625 3.864563828125  C 6.11887041015625 4.49218829101563  6.28762600585937 5.13456276367188  6.613445078125 5.69071568359375  L 1.67267491210937 5.69071568359375  C 1.23539139648438 5.69071568359375  0.881241513671875 6.04549515625  0.881241513671875 6.482778671875  L 0.881241513671875 13.6808383984375  C 0.881241513671875 14.1181519140625  1.23536142578125 14.4729013867188  1.67267491210937 14.4729013867188  L 3 14.4729013867188  L 3 24.6118771679688  C 2.7474462109375 25.0492206542969  3.10159609375 25.4039701269531  3.538879609375 25.4039701269531  L 10.8268783398438 25.4039701269531  L 15.1813360058594 25.4039701269531  L 22.4686751757813 25.4039701269531  C 22.9060186621094 25.4039701269531  23.2601385742188 25.0492206542969  23 24.6118771679688  L 23 14.472961328125  L 24.3348799609375 14.472961328125  C 24.7721934765625 14.472961328125  25.126313359375 14.1182118554687  25.126313359375 13.6808983398437  L 25.126313359375 6.48283864257813  Z M 13.694494140625 5.67044942382813  C 13.7906089550781 4.74845456054688  14.0782339550781 3.42608110351562  14.8031424707031 2.69067970703125  C 15.1807064746094 2.30699983398438  15.6432328808594 2.11974680664062  16.2178532910156 2.11974680664062  C 17.4964264257813 2.11974680664062  17.9504086328125 3.0596095703125  17.9504086328125 3.86459379882812  C 17.9504086328125 4.34870555664063  17.7877988769531 4.81557903320313  17.5038314160156 5.14505564453125  C 17.192852265625 5.50661051757812  16.7616845898438 5.69014606445313  16.2209412109375 5.69074565429688  L 13.694494140625 5.67044942382813  Z M 9.43432254882813 5.69074565429688  C 8.06700956054688 5.69074568359375  7.702366796875 4.54273401367188  7.702366796875 3.86459379882812  C 7.702366796875 3.38791697265625  7.85328446289063 2.95429099609375  8.12918740234375 2.6420526953125  C 8.43408068359375 2.29590739257813  8.87319296875 2.11974680664063  9.43429254882813 2.11974680664063  C 10.0027970898437 2.11974680664063  10.4585480957031 2.30391194335938  10.8281075488281 2.68267512695313  C 11.545011484375 3.41744696289063  11.8184860644531 4.75891744140625  11.9041080273438 5.69074565429688  L 10.8268783984375 5.69074565429688  L 9.43432254882813 5.69074565429688  Z M 2.46410833984375 12.8894649414063  L 2.46410833984375 7.27427204101562  L 9.43432254882812 7.27427204101562  L 10.0348453808594 7.27427204101562  L 10.0348453808594 12.8894649414063  L 2.46410833984375 12.8894649414063  Z M 4.33031303710937 23.8205636523438  L 4.33031303710937 14.472961328125  L 10.0348153808594 14.472961328125  L 10.0348153808594 23.8205636523437  L 4.33031303710937 23.8205636523438  Z M 14 23.8205636523438  L 12 23.8205636523438  L 12 7.27427204101562  L 12.7275597167969 7.27427204101562  L 14 7.27427204101562  L 14 23.8205636523438  Z M 21.6766722167969 14.472961328125  L 21.6766722167969 23.8205636523438  L 15.9727394921875 23.8205636523438  L 15.9727394921875 14.472961328125  L 21.6766722167969 14.472961328125  Z M 23.5428469726563 7.27427204101562  L 23.5428469433594 12.8894649414063  L 15.9727394921875 12.8894649414063  L 15.9727394921875 7.27427204101562  L 16.211077890625 7.27427204101562  L 16.2178832910156 7.27427204101562  L 23.5428469726563 7.27427204101562  Z " fill-rule="nonzero" fill="#fd994b" stroke="none" transform="matrix(1 0 0 1 222 182 )" />
  </g>
</svg>