<?xml version="1.0" encoding="utf-8"?>
<svg version="1.1" xmlns:xlink="http://www.w3.org/1999/xlink" width="24px" height="24px" xmlns="http://www.w3.org/2000/svg">
  <g transform="matrix(1 0 0 1 -42 -115 )">
    <path d="M 23.220393046875 17.9776525215517  C 23.2859062792969 17.7607813011853  23.2304720214844 17.5313982623922  23.0692088085938 17.3478918265086  C 23.0339324707031 17.3061858216595  19.5768520019531 13.3274327020474  19.5768520019531 10.3788179822198  C 19.5768520019531 6.29579986260775  17.3443641796875 4.20215827855603  14.8095077929687 3.42225595635776  L 14.8095078222656 3.05107248653017  C 14.8095078222656 1.76652745959052  13.5445993652344 0.723877265624999  11.9974802636719 0.723877265624999  C 10.4503611621094 0.723877265624999  9.18545270507813 1.77069805765086  9.18545270507813 3.05107248653017  L 9.18545270507813 3.42225595635776  C 6.65059631835937 4.20215830280172  4.41810849609375 6.29579986260776  4.41810849609375 10.3788179822198  C 4.41810849609375 13.3190915059267  0.961028027343747 17.2936740032328  0.925751689453122 17.3353800080819  C 0.769527949218752 17.5188864439655  0.709054218750001 17.7440988846983  0.769527949218752 17.9651407273707  C 0.830001650390624 18.1820119719828  1.00134383789062 18.3696890059267  1.23819919921875 18.4739540059267  C 1.4045019140625 18.5490248195043  4.38283215820313 19.8627640571121  8.07676798828125 20.5217189628233  C 8.7016630078125 22.131570856681  10.2437426367187 23.220097653556  11.9924407617187 23.220097653556  C 13.7411388867187 23.220097653556  15.283218515625 22.131570856681  15.9081135351562 20.5217189628233  C 19.6020493652344 19.8627640571121  22.580379609375 18.557366015625  22.7466823242187 18.4864658001078  C 22.9885771582031 18.3780301778017  23.1548798730469 18.1945237419181  23.220393046875 17.9776525215517  Z M 11.060137734375 3.05107248653017  C 11.060137734375 2.62567121767241  11.4834537011719 2.27534073814655  11.9974802636719 2.27534073814655  C 12.511506796875 2.27534073814655  12.9348227929688 2.62567119342673  12.9348227929688 3.05107248653017  L 12.9348227929688 3.07192550107759  C 12.7231647949219 3.05941370689655  12.5165462988281 3.05107248653017  12.3099277734375 3.05107248653017  L 11.6850327539062 3.05107248653017  C 11.4784142285156 3.05107248653017  11.2717957324219 3.05941368265086  11.060137734375 3.07192550107759  L 11.060137734375 3.05107248653017  Z M 13.6957836328125 20.8178316190733  C 13.2623887207031 21.3474979364224  12.6526121191406 21.6728047790948  11.9974802636719 21.6728047790948  C 11.3423484082031 21.6728047790948  10.7325718066406 21.3474979121767  10.2991768945313 20.8178316190733  C 10.8635981835938 20.8678788200431  11.4280195019531 20.8970730307112  11.9974802636719 20.8970730307112  C 12.5669410253906 20.8970730307112  13.1364018164063 20.8637082219828  13.6957836328125 20.8178316190733  Z " fill-rule="nonzero" fill="#2ab795" stroke="none" transform="matrix(1 0 0 1 42 115 )" />
  </g>
</svg>