<?xml version="1.0" encoding="utf-8"?>
<svg version="1.1" xmlns:xlink="http://www.w3.org/1999/xlink" width="25px" height="23px" xmlns="http://www.w3.org/2000/svg">
  <g transform="matrix(1 0 0 1 -28 -22 )">
    <path d="M 22.4979714133523 0.278229175121751  L 2.42698780406606 0.278229175121751  C 1.14661199396307 0.278229175121751  0.109123091264202 1.35894885095373  0.109123091264202 2.69164611657873  L 0.109123091264202 20.3784985161323  C 0.109123091264202 21.7111704038149  1.14663613059304 22.7919154575893  2.42698780406606 22.7919154575893  L 22.4979955499822 22.7919154575893  C 23.7784196333452 22.7919154575893  24.8158602627841 21.7111957817573  24.8158602627841 20.3784985161323  L 24.8158602627841 2.69164611657873  C 24.8158361261541 1.3572739067573  23.7783472234553 0.278229175121751  22.4979714133523 0.278229175121751  Z M 2.42447759454901 1.88665778459821  L 2.42452586780895 2  L 22.4987679221413 2  C 22.9258173162287 1.88665778459821  23.2708504416726 2.2451973544034  23.2708504416726 2.68997117238232  L 23.2708504416726 12.1607654854911  C 22.0266313032671 11.0970997869318  19.8704578746449 9.66291612976866  17.2823353160511 9.66291612976866  C 14.8969121759588 9.66291612976866  12.5436631636186 11.589203467431  10.2692202481357 13.4511577211851  C 8.52638660777698 14.876890523539  6.72405617453836 16.3533284547484  5.45975535999644 16.3533284547484  C 3.68559237393465 16.3533284547484  2.16792935458097 14.9952532467532  2 14.4760713017451  L 2 2.68999655032466  C 1.65239507501775 2.24687229859983  1.99824884588068 1.88665778459821  2.42447759454901 1.88665778459821  Z M 22.4988403320313 21.1818372818588  L 22.4987920587713 21  L 2.42455000443892 21  C 1.99829711914062 21.1818372818588  1.65246748490767 20.8215973899148  1.65246748490767 20.3784985161323  L 1.65246748490767 16.5613514483563  C 2.5781796542081 17.2428760907062  3.91723161177202 17.9617063083401  5.45982776988636 17.9617063083401  C 7.25815152254972 17.9617063083401  9.18435114080256 16.3837819855925  11.2239446466619 14.7162227703937  C 13.2925021084872 13.023310990767  15.4310316606001 11.2729943054992  17.2824077259411 11.2729943054992  C 20.5999875155362 11.2729943054992  23.232280106978 14.3154289265422  23.2596510453658 14.3458317015016  L 23.2717193603516 14.3339802024148  L 23.2717193603516 20.3784731381899  C 23.2717193603516 20.8232469561688  22.9258655894886 21.1835122260552  22.4988403320313 21.1835122260552  L 22.4988403320313 21.1818372818588  Z M 7.82188665216619 11.5418482269683  C 9.53010836514559 11.5418482269683  10.9150681929155 10.1009394150771  10.9150681929155 8.32346833147321  C 10.9150681929155 6.54427154778816  9.53015663840554 5.10163703581576  7.82188665216619 5.10163703581576  C 6.11446144797585 5.10163703581576  4.72952575683594 6.54427154778816  4.72952575683594 8.32346833147321  C 4.72952575683594 10.1009140371347  6.11446144797585 11.5418482269683  7.82188665216619 11.5418482269683  Z M 7.83318259499291 6.71001488940746  C 8.68327470259233 6.71001488940746  9.37331681685014 7.42709402901786  9.37331681685014 8.31331715452517  C 9.37331681685014 9.19954028003247  8.68327470259233 9.91661941964286  7.83318259499291 9.91661941964286  C 6.9822939786044 9.91661941964286  6.29304837313565 9.19954028003247  6.29304837313565 8.31331715452517  C 6.29304837313565 7.42881972909903  6.98309048739346 6.71001488940746  7.83318259499291 6.71001488940746  Z " fill-rule="nonzero" fill="#ffffff" stroke="none" transform="matrix(1 0 0 1 28 22 )" />
  </g>
</svg>