<?xml version="1.0" encoding="utf-8"?>
<svg version="1.1" xmlns:xlink="http://www.w3.org/1999/xlink" width="15px" height="24px" xmlns="http://www.w3.org/2000/svg">
  <g transform="matrix(1 0 0 1 -172 -260 )">
    <path d="M 13.169779608314 23.7976878612717  L 13.1943271784566 23.7976878612717  C 13.0293960314135 23.7964702839087  12.8680013506124 23.749750769658  12.7279235191576 23.6626762716763  L 0.454143418955089 16.114300867052  C 0.179141174576183 15.9584984819826  0.00657230875001595 15.6693289982483  0 15.3533264450867  L 0 1.38576349710983  C 0 1.38411955466557  0 1.38247559042938  0 1.38083162308004  C 0 0.885992212833354  0.401146566804883 0.484845611519349  0.895985934482412 0.484845611519349  C 1.04140038772902 0.484845611519349  1.18462982238949 0.520238228146728  1.31330802712533 0.587967716763005  L 13.5870881273278 7.11761927745665  C 13.8791395813346 7.27131929135423  14.0630527281669 7.57312551240083  14 7.9031412716763  L 14 22.901701849711  C 14.0657655427964 23.3965412599577  13.6646189759915 23.7976878612717  13.169779608314 23.7976878612717  Z M 2 2.87089101156069  L 2 14.850101416185  L 12 21.3061102890173  L 12 8.4431876300578  L 2 2.87089101156069  Z " fill-rule="nonzero" fill="#666666" stroke="none" transform="matrix(1 0 0 1 172 260 )" />
  </g>
</svg>