<?xml version="1.0" encoding="utf-8"?>
<svg version="1.1" xmlns:xlink="http://www.w3.org/1999/xlink" width="23px" height="22px" xmlns="http://www.w3.org/2000/svg">
  <g transform="matrix(1 0 0 1 -216 -101 )">
    <path d="M 7.41276415625 12.13066540625  C 7.4018515390625 12.140690609375  7.404921453125 12.1555365546875  7.39712675 12.1671926328125  C 7.38314421875 12.1849885625  7.3691617109375 12.203743859375  7.3628779765625 12.2263125546875  L 6.2835617421875 16.183413640625  C 6.220628421875 16.4138014296875  6.2850967109375 16.662057125  6.4556450703125 16.8370664609375  C 6.5832145859375 16.96168596875  6.7512926328125 17.0301835390625  6.93030725 17.0301835390625  C 6.989427171875 17.0301835390625  7.048667 17.02310834375  7.1069714609375 17.00761484375  L 11.035987578125 15.93599740625  C 11.0422953125 15.93599740625  11.0453412265625 15.94151365625  11.050090015625 15.94151365625  C 11.09522740625 15.94151365625  11.1395733359375 15.9250847890625  11.1730546484375 15.8908599921875  L 21.679395359375 5.38605425  C 21.991471765625 5.073570125  22.16259575 4.6479067109375  22.16259575 4.184780703125  C 22.16259575 3.660016484375  21.940026640625 3.1354681484375  21.5502668984375 2.746739703125  L 20.5580356484375 1.7529255078125  C 20.1688755078125 1.363165765625  19.643583640625 1.1401889375  19.11905928125 1.1401889375  C 18.656053203125 1.1401889375  18.2304137890625 1.311360875  17.9175458984375 1.6230535625  L 7.41276415625 12.13066540625  Z M 20.764943375 4.0716254375  C 20.764319796875 4.1832457578125  20.72455475 4.2845290859375  20.651356390625 4.357247796875  L 19.6077759453125 5.40003678125  L 17.916034953125 3.681434  L 18.9448174296875 2.6526275234375  C 19.107379203125 2.4891783359375  19.4225735 2.5130181875  19.6093588671875 2.7004750859375  L 20.602261671875 3.69428928125  C 20.7058714296875 3.79773115625  20.764943375 3.93544578125  20.764943375 4.0716254375  Z M 9.2656039296875 12.3322487421875  L 16.846815875 4.7506051015625  L 18.5393963046875 6.470359109375  L 10.972286796875 14.0371088515625  L 9.2656039296875 12.3322487421875  Z M 7.8843563984375 15.406028703125  L 8.4322169375 13.395112109375  L 9.8935941171875 14.8566331953125  L 7.8843563984375 15.406028703125  Z M 21.4895640546875 9.2419919375  C 21.488029109375 8.843478125  21.1387778984375 8.520129359375  20.7411754765625 8.520129359375  C 20.343477125 8.520129359375  19.993410453125 8.843478125  19.9918755078125 9.2465728203125  L 19.9918755078125 19.076524109375  C 19.9918755078125 19.5901118984375  19.5747743046875 19.9884098515625  19.060371078125 20  L 2.9004395 20  C 2.386827734375 19.9884098515625  2.00402328125 19.590159875  2 19.076524109375  L 2 2.8990844140625  C 2.00402328125 2.38508890625  2.3868037578125 1.998111265625  2.9004395 2  L 13.9907123046875 2  C 14.39064115625 1.998111265625  14.7151411484375 1.6427202265625  14.7151411484375 1.2426714453125  C 14.7151411484375 0.843414148437501  14.3906171796875 0.5001348828125  13.9907123046875 0.5001348828125  L 2.7899224296875 0.50013490625  C 1.5377793828125 0.50013490625  0.49710096875 1.536448296875  0.49710096875 2.789334828125  L 0.49710096875 19.18708915625  C 0.49710096875 20.4400236640625  1.5378033828125 21.4938691484375  2.7899224296875 21.4938691484375  L 19.1700247109375 21.4938691484375  C 20.4230791484375 21.4938691484375  21.4895640546875 20.4400236640625  21.4895640546875 19.18708915625  L 21.4895640546875 9.2419919375  Z " fill-rule="nonzero" fill="#666666" stroke="none" transform="matrix(1 0 0 1 216 101 )" />
  </g>
</svg>