<?xml version="1.0" encoding="utf-8"?>
<svg version="1.1" xmlns:xlink="http://www.w3.org/1999/xlink" width="24px" height="24px" xmlns="http://www.w3.org/2000/svg">
  <g transform="matrix(1 0 0 1 -17 -98 )">
    <path d="M 23.2001939146205 12  C 23.2001939146205 5.82456276227678  18.1762579854911 0.799806085379458  12 0.799806085379458  C 5.82456276227678 0.799806085379458  0.799806085379466 5.82451954520089  0.799806085379466 12  C 0.799806085379466 18.1762579854911  5.82374198939732 23.2001939146205  12 23.2001939146205  C 18.1762580106027 23.2001939146205  23.2001939146205 18.1762579854911  23.2001939146205 12  Z M 17.3991014815848 9.01556529575893  C 17.7134025753348 9.32813851004464  17.7165991573661 9.83678270089285  17.4048034988839 10.1525956640625  L 10.9706164620536 16.656675359933  C 10.9690181835938 16.6582736383929  10.9657784095982 16.6590943861607  10.9641801060268 16.6615134123884  C 10.9617610797991 16.6631116908482  10.9617610797991 16.6663514648437  10.9593420535714 16.6679497684152  C 10.9078944726563 16.7177558537946  10.8444381445312 16.7482961132813  10.7849559291295 16.7820761216518  C 10.7552364174107 16.7989661383929  10.7311325139509 16.8246683203125  10.699771531808 16.8367202845982  C 10.6033559179687 16.8752951785714  10.5012815039063 16.8953817522321  10.399250281808 16.8953817522321  C 10.296398311942 16.8953817522321  10.1927256194196 16.8752951785714  10.0954892578125 16.8351220061384  C 10.0633507198661 16.8214717633929  10.0376485379464 16.7941280859375  10.0071082784598 16.7772812862723  C 9.94762606305804 16.7435444698661  9.88576801339286 16.713781766183  9.83432043247768 16.6631549330357  C 9.83272215401786 16.6615566545759  9.83190140625 16.6583168805803  9.83030312779018 16.6567185770089  C 9.82870484933036 16.6542995507812  9.82546507533483 16.6542995507812  9.8238667717634 16.6518805245536  L 6.65938714285715 13.3998406640625  C 6.35001051060268 13.0816086746652  6.35722442243304 12.572964483817  6.67545641183036 12.2635878515625  C 6.99368840122768 11.9550319670759  7.50151186941964 11.9606475753348  7.81170922433036 12.2796571205357  L 10.4048226729911 14.9443047237723  L 16.2628486690848 9.02200165178571  C 16.574644327567 8.70618868861607  17.0841092410714 8.70299210658482  17.3991014815848 9.01556529575893  Z " fill-rule="nonzero" fill="#2ab795" stroke="none" transform="matrix(1 0 0 1 17 98 )" />
  </g>
</svg>