<?xml version="1.0" encoding="utf-8"?>
<svg version="1.1" xmlns:xlink="http://www.w3.org/1999/xlink" width="5px" height="4px" xmlns="http://www.w3.org/2000/svg">
  <g transform="matrix(1 0 0 1 -36 -596 )">
    <path d="M 4.560478984375 2.06250163085937  C 4.560508984375 3.05875616210938  3.75006844726562 3.8694365234375  2.75354409179688 3.8694365234375  C 1.75701973632813 3.8694365234375  0.946339375000001 3.05875616210938  0.946339375000001 2.06250163085937  C 0.946339375000001 1.06597727539062  1.75701973632813 0.2552969140625  2.75354409179688 0.2552969140625  C 3.75006844726562 0.2552969140625  4.560478984375 1.06597727539062  4.560478984375 2.06250163085937  Z M 3.6179780078125 2.06247163085938  C 3.6179780078125 1.58558498046875  3.22992112304688 1.19782786132813  2.75354409179688 1.19782786132813  C 2.27668741210938 1.19782786132813  1.88890032226562 1.58558495117187  1.88890032226562 2.06247163085938  C 1.88890032226562 2.53908848632813  2.27668741210937 2.92684557617187  2.75354409179688 2.92684557617187  C 3.22992109375 2.92684557617187  3.6179780078125 2.53908848632813  3.6179780078125 2.06247163085938  Z " fill-rule="nonzero" fill="#666666" stroke="none" transform="matrix(1 0 0 1 36 596 )" />
  </g>
</svg>