<?xml version="1.0" encoding="utf-8"?>
<svg version="1.1" xmlns:xlink="http://www.w3.org/1999/xlink" width="28px" height="28px" xmlns="http://www.w3.org/2000/svg">
  <g transform="matrix(1 0 0 1 -14 -635 )">
    <path d="M 23.462890625 12.9306640625  L 25.337890625 12.9306640625  C 25.66015625 12.9306640625  25.923828125 13.1943359375  25.923828125 13.5166015625  L 25.923828125 20.8408203125  C 25.923828125 21.1630859375  25.66015625 21.4267578125  25.337890625 21.4267578125  L 23.462890625 21.4267578125  C 23.140625 21.4267578125  22.876953125 21.1630859375  22.876953125 20.8408203125  L 22.876953125 13.5166015625  C 22.876953125 13.1943359375  23.140625 12.9306640625  23.462890625 12.9306640625  Z M 27.095703125 13.5166015625  C 27.095703125 12.546875  26.310546875 11.7587890625  25.337890625 11.7587890625  L 23.462890625 11.7587890625  C 22.4931640625 11.7587890625  21.705078125 12.546875  21.705078125 13.5166015625  L 21.705078125 20.8408203125  C 21.705078125 21.810546875  22.4931640625 22.5986328125  23.462890625 22.5986328125  L 25.337890625 22.5986328125  C 26.3076171875 22.5986328125  27.095703125 21.810546875  27.095703125 20.8408203125  L 27.095703125 13.5166015625  Z M 2.57421875 11.7587890625  L 3.74609375 11.7587890625  L 3.74609375 9.6611328125  C 3.74609375 8.6328125  3.9482421875 7.6337890625  4.34375 6.6962890625  C 4.7275390625 5.7880859375  5.275390625 4.9736328125  5.9755859375 4.2734375  C 6.67578125 3.5732421875  7.490234375 3.025390625  8.3984375 2.6416015625  C 9.3359375 2.24609375  10.3349609375 2.0439453125  11.36328125 2.0439453125  L 16.63671875 2.0439453125  C 17.6650390625 2.0439453125  18.6640625 2.24609375  19.6015625 2.6416015625  C 20.509765625 3.025390625  21.32421875 3.5732421875  22.0244140625 4.2734375  C 22.724609375 4.9736328125  23.2724609375 5.7880859375  23.65625 6.6962890625  C 24.0517578125 7.6337890625  24.25390625 8.6328125  24.25390625 9.6611328125  L 24.25390625 11.7587890625  L 25.42578125 11.7587890625  L 25.42578125 9.6611328125  C 25.42578125 4.806640625  21.4912109375 0.872070312499999  16.63671875 0.872070312499999  L 11.36328125 0.872070312499999  C 6.5087890625 0.872070312499999  2.57421875 4.806640625  2.57421875 9.6611328125  L 2.57421875 11.7587890625  Z M 6.294921875 13.5166015625  C 6.294921875 12.546875  5.5068359375 11.7587890625  4.537109375 11.7587890625  L 2.662109375 11.7587890625  C 1.6923828125 11.7587890625  0.904296875 12.546875  0.904296875 13.5166015625  L 0.904296875 19.6220703125  L 2.076171875 19.6220703125  L 2.076171875 13.5166015625  C 2.076171875 13.1943359375  2.33984375 12.9306640625  2.662109375 12.9306640625  L 4.537109375 12.9306640625  C 4.859375 12.9306640625  5.123046875 13.1943359375  5.123046875 13.5166015625  L 5.123046875 20.8408203125  C 5.123046875 21.1630859375  4.859375 21.4267578125  4.537109375 21.4267578125  L 3.599609375 21.4267578125  L 3.599609375 22.5986328125  L 4.537109375 22.5986328125  C 5.5068359375 22.5986328125  6.294921875 21.810546875  6.294921875 20.8408203125  L 6.294921875 13.5166015625  Z M 15.0693359375 25  L 15.0693359375 24  L 5.005859375 24  C 3.3916015625 24.212890625  2.076171875 22.8974609375  2.076171875 21.283203125  L 2.076171875 16.6953125  L 0.904296875 16.6953125  L 0.904296875 21.283203125  C 0.904296875 23.5478515625  2.7412109375 25.384765625  5.005859375 25  L 15.0693359375 25  Z M 16.51953125 23.5888671875  L 18.25390625 23.5888671875  C 18.48828125 23.5888671875  18.7138671875 23.6826171875  18.8837890625 23.8525390625  C 19.0537109375 24.0224609375  19.1474609375 24.2451171875  19.1474609375 24.482421875  L 19.1474609375 25.044921875  C 19.1474609375 25.279296875  19.0537109375 25.5048828125  18.8837890625 25.6748046875  C 18.7138671875 25.8447265625  18.4912109375 25.9384765625  18.25390625 25.9384765625  L 16.51953125 25.9384765625  C 16.28515625 25.9384765625  16.0595703125 25.8447265625  15.8896484375 25.6748046875  C 15.7197265625 25.5048828125  15.6259765625 25.2822265625  15.6259765625 25.044921875  L 15.6259765625 24.482421875  C 15.6259765625 24.248046875  15.7197265625 24.0224609375  15.8896484375 23.8525390625  C 16.0595703125 23.6826171875  16.2822265625 23.5888671875  16.51953125 23.5888671875  Z M 20.31640625 24.4794921875  C 20.31640625 23.345703125  19.3876953125 22.4169921875  18.25390625 22.4169921875  L 16.51953125 22.4169921875  C 15.3857421875 22.4169921875  14.45703125 23.345703125  14.45703125 24.4794921875  L 14.45703125 25.0419921875  C 14.45703125 26.17578125  15.3857421875 27.1044921875  16.51953125 27.1044921875  L 18.25390625 27.1044921875  C 19.3876953125 27.1044921875  20.31640625 26.17578125  20.31640625 25.0419921875  L 20.31640625 24.4794921875  Z " fill-rule="nonzero" fill="#666666" stroke="none" transform="matrix(1 0 0 1 14 635 )" />
  </g>
</svg>