<?xml version="1.0" encoding="utf-8"?>
<svg version="1.1" xmlns:xlink="http://www.w3.org/1999/xlink" width="88px" height="77px" xmlns="http://www.w3.org/2000/svg">
  <g transform="matrix(1 0 0 1 -143 -47 )">
    <path d="M 79.192859375 0.931462890625  L 79.192859375 1  L 8.5429970703125 1  C 4.03607421875 0.931462890624999  0.384113281249999 4.5495244140625  1 9.0111630859375  L 1 68.2236689453125  C 0.384113281249999 72.68522265625  4.0361591796875 76.303369140625  8.5429970703125 76  L 79.1929443359375 76  C 83.700037109375 76.303369140625  87.351828125 72.6853076171875  87 68.2236689453125  L 87 9.0111630859375  C 87.3517431640625 4.5439169921875  83.6997822265625 0.931462890625  79.192859375 0.931462890625  Z M 8.5341611328125 6.3162021484375  L 8.5343310546875 7  L 79.1956630859375 7  C 80.698876953125 6.3162021484375  81.9133935546875 7.5165302734375  82 9.0055556640625  L 82 40.7121279296875  C 77.5337421875 37.15116015625  69.94401171875 32.3497626953125  60.8338203125 32.3497626953125  C 52.437130859375 32.3497626953125  44.1536943359375 38.7986376953125  36.1476552734375 45.03213671875  C 30.012880859375 49.8052421875  23.668677734375 54.748099609375  19.2183388671875 54.748099609375  C 12.97328515625 54.748099609375  7.631111328125 50.2015  6 48.463369140625  L 6 9.005640625  C 5.8164306640625 7.52213769531249  7.0338359375 6.3162021484375  8.5341611328125 6.3162021484375  Z M 79.19591796875 70.913107421875  L 79.195748046875 71  L 8.534416015625 71  C 7.034005859375 70.913107421875  5.816685546875 69.7070869140625  6 68.2236689453125  L 6 55.4445244140625  C 9.0751923828125 57.726150390625  13.7886552734375 60.1326689453125  19.21859375 60.1326689453125  C 25.548693359375 60.1326689453125  32.328916015625 54.850052734375  39.50828515625 49.2673544921875  C 46.789607421875 43.5997802734375  54.3172314453125 37.7400244140625  60.8340751953125 37.7400244140625  C 72.5119560546875 37.7400244140625  81.7776259765625 47.92556640625  81.8739716796875 48.027349609375  L 82 47.9876728515625  L 82 68.223583984375  C 81.9164521484375 69.712609375  80.699046875 70.91871484375  79.19591796875 70.91871484375  L 79.19591796875 70.913107421875  Z M 27.533041015625 38.6401005859375  C 33.5459814453125 38.6401005859375  38.4210400390625 33.8161884765625  38.4210400390625 27.8655244140625  C 38.4210400390625 21.9090830078125  33.5461513671875 17.0793935546875  27.533041015625 17.0793935546875  C 21.522904296875 17.0793935546875  16.6479306640625 21.9090830078125  16.6479306640625 27.8655244140625  C 16.6479306640625 33.816103515625  21.522904296875 38.6401005859375  27.533041015625 38.6401005859375  Z M 27.572802734375 22.463962890625  C 30.565126953125 22.463962890625  32.9940751953125 24.864619140625  32.9940751953125 27.8315400390625  C 32.9940751953125 30.7984609375  30.565126953125 33.1991171875  27.572802734375 33.1991171875  C 24.5776748046875 33.1991171875  22.1515302734375 30.7984609375  22.1515302734375 27.8315400390625  C 22.1515302734375 24.870396484375  24.580478515625 22.463962890625  27.572802734375 22.463962890625  Z " fill-rule="nonzero" fill="#ffffff" stroke="none" transform="matrix(1 0 0 1 143 47 )" />
  </g>
</svg>