<?xml version="1.0" encoding="utf-8"?>
<svg version="1.1" xmlns:xlink="http://www.w3.org/1999/xlink" width="52px" height="47px" xmlns="http://www.w3.org/2000/svg">
  <g transform="matrix(1 0 0 1 -48 -82 )">
    <path d="M 46.7957805397727 0.568555270900973  L 46.7957805397727 1  L 5.04813463245739 1  C 2.38495294744318 0.568555270900973  0.226976029829544 2.77698243455762  1 5.50032032518263  L 1 41.643018706879  C 0.226976029829544 44.3663047382305  2.38500315163353 46.5747837611607  5.04813463245739 46  L 46.7958307439631 46  C 49.459112837358 46.5747837611607  51.6169893465909 44.3663565975041  51 41.643018706879  L 51 5.50032032518263  C 51.6169391424006 2.77355972250405  49.4589622247869 0.568555270900973  46.7957805397727 0.568555270900973  Z M 5.04291339666193 3.85534416852678  L 5.04301380504262 4  L 46.797437278054 4  C 47.6857000177557 3.85534416852678  48.403368918679 4.58801198508522  48 5.49689761312908  L 48 24.850259905134  C 45.8153931107955 22.6766821732955  41.3305523792614 19.7459590477881  35.9472574573864 19.7459590477881  C 30.9855773259943 19.7459590477881  26.0908193803267 23.6822853464894  21.3599781161222 27.4871483867695  C 17.7348841441761 30.4006023741883  13.9860368430398 33.417671190138  11.3562911487926 33.417671190138  C 7.66603213778409 33.417671190138  4.50929305752841 30.642474025974  4 29.581537007914  L 4 5.49694947240258  C 3.43698175603693 4.59143469713879  4.15635759943181 3.85534416852678  5.04291339666193 3.85534416852678  Z M 46.797587890625 43.2846240107549  L 46.7974874822443 43  L 5.04306400923295 43  C 4.1564580078125 43.2846240107549  3.43713236860795 42.5484816228693  3.43713236860795 41.643018706879  L 3.43713236860795 33.8427616553369  C 5.36261368075284 35.2354424462256  8.14784175248579 36.7043563692167  11.3564417613636 36.7043563692167  C 15.0969551669034 36.7043563692167  19.1034503728693 33.4799023183847  23.3458048650568 30.0722813134132  C 27.6484043856534 26.6128528941761  32.0965458540483 23.036118798194  35.9474080699574 23.036118798194  C 42.8479740323153 23.036118798194  48.3231426225142 29.2532678064123  48.3800741743608 29.315395216112  L 48 29.2911769353693  L 48 41.6429668476055  C 48.4051762695313 42.5518524756494  47.6858004261364 43.2880467228084  46.797587890625 43.2880467228084  L 46.797587890625 43.2846240107549  Z M 16.2695242365057 23.5855159420657  C 19.8226253995028 23.5855159420657  22.7033418412642 20.6410501090706  22.7033418412642 17.0088265904018  C 22.7033418412642 13.3730766411323  19.8227258078835 10.4250843775365  16.2695242365057 10.4250843775365  C 12.7180798117898 10.4250843775365  9.83741357421874 13.3730766411323  9.83741357421874 17.0088265904018  C 9.83741357421874 20.6409982497971  12.7180798117898 23.5855159420657  16.2695242365057 23.5855159420657  Z M 16.2930197975852 13.7117695566153  C 18.061211381392 13.7117695566153  19.4964989790483 15.1771051897321  19.4964989790483 16.9880828809862  C 19.4964989790483 18.7990605722403  18.061211381392 20.2643962053571  16.2930197975852 20.2643962053571  C 14.5231714754972 20.2643962053571  13.0895406161221 18.7990605722403  13.0895406161221 16.9880828809862  C 13.0895406161221 15.1806316203328  14.5248282137784 13.7117695566153  16.2930197975852 13.7117695566153  Z " fill-rule="nonzero" fill="#ffffff" stroke="none" transform="matrix(1 0 0 1 48 82 )" />
  </g>
</svg>