<?xml version="1.0" encoding="utf-8"?>
<svg version="1.1" xmlns:xlink="http://www.w3.org/1999/xlink" width="73px" height="53px" xmlns="http://www.w3.org/2000/svg">
  <g transform="matrix(1 0 0 1 -152 -33 )">
    <path d="M 65.6940765269886 0.641136794845778  L 65.6940765269886 1  L 7.08680438787286 1  C 3.34810702237218 0.641136794845778  0.318639426491472 3.1314908304586  1 6.20248887733361  L 1 46.9591487545657  C 0.318639426491472 50.0300883218344  3.34817750133169 52.5205008370536  7.08680438787286 52  L 65.6941470059481 52  C 69.4329853293679 52.5205008370536  72.4623119673296 50.0301468014407  72 46.9591487545657  L 72 6.20248887733361  C 72.4622414883701 3.12763117644073  69.4327738924894 0.641136794845778  65.6940765269886 0.641136794845778  Z M 7.0794745760831 4.34751576450893  L 7.07961553400213 5  L 65.6964023326527 5  C 66.9433865633878 4.34751576450893  67.950883289684 5.17371564275567  68 6.19862922331578  L 68 28.0226335100447  C 64.3177634055398 25.5715777698864  58.0217369939631 22.266719777293  50.4644191228693 22.266719777293  C 43.4989835537997 22.266719777293  36.6274964377664 26.705555816254  29.9861231245561 30.9961460531656  C 24.8970488947088 34.2815303368506  19.634244029652 37.6837568739854  15.9424856511896 37.6837568739854  C 10.7619297318892 37.6837568739854  6.33035371537642 34.5542792207792  5 33.3579034344562  L 5 6.19868770292206  C 4.82499361905184 5.17757529677353  5.83488662997158 4.34751576450893  7.0794745760831 4.34751576450893  Z M 65.6966137695313 48.8103206929789  L 65.6964728116122 48  L 7.07968601296164 48  C 5.83502758789061 48.8103206929789  4.82520505593038 47.9802026811079  4.82520505593038 46.9591487545657  L 4.82520505593038 38.163114207082  C 7.52828459028765 39.7335840351055  11.4383163063743 41.3900188844359  15.9426970880682 41.3900188844359  C 21.1938024458452 41.3900188844359  26.8183053311434 37.7539324015828  32.7739183682529 33.911295949168  C 38.8141061567827 30.0102383700284  45.0586124489524 25.9768999213677  50.4646305597479 25.9768999213677  C 60.1519635453658 25.9768999213677  67.8382579123757 32.9877275263799  67.918181052468 33.0577860947646  L 68 33.0304761186079  L 68 46.9590902749594  C 67.9534205322266 47.9840038555195  66.9435275213068 48.8141803469968  65.6966137695313 48.8141803469968  L 65.6966137695313 48.8103206929789  Z M 22.8399090243253 26.5964328708401  C 27.8279164262251 26.5964328708401  31.8719991233132 23.276077782569  31.8719991233132 19.1801661551339  C 31.8719991233132 15.0802779144684  27.8280573841442 11.7559462129667  22.8399090243253 11.7559462129667  C 17.8542274280895 11.7559462129667  13.8102152099609 15.0802779144684  13.8102152099609 19.1801661551339  C 13.8102152099609 23.2760193029626  17.8542274280895 26.5964328708401  22.8399090243253 26.5964328708401  Z M 22.8728931773793 15.4622082234172  C 25.3551621315696 15.4622082234172  27.3700851052024 17.1146079799107  27.3700851052024 19.1567743126015  C 27.3700851052024 21.1989406452922  25.3551621315696 22.8513404017857  22.8728931773793 22.8513404017857  C 20.3882984175248 22.8513404017857  18.3757012495561 21.1989406452922  18.3757012495561 19.1567743126015  C 18.3757012495561 17.1185845931413  20.3906242231889 15.4622082234172  22.8728931773793 15.4622082234172  Z " fill-rule="nonzero" fill="#ffffff" stroke="none" transform="matrix(1 0 0 1 152 33 )" />
  </g>
</svg>