<?xml version="1.0" encoding="utf-8"?>
<svg version="1.1" xmlns:xlink="http://www.w3.org/1999/xlink" width="14px" height="24px" xmlns="http://www.w3.org/2000/svg">
  <g transform="matrix(1 0 0 1 -335 -73 )">
    <path d="M 13.1203131152344 12.8710018945312  C 13.199989921875 12.7874949609375  13.2421717382813 12.6852909667969  13.2965495214844 12.5896888769531  C 13.31156765625 12.5606101171875  13.335909140625 12.5362686328125  13.3490626171875 12.5062323632813  C 13.6068908789062 11.9699637304688  13.522476796875 11.3137515234375  13.0659353613281 10.8824586914063  L 2.71687274414063 1.09405658203125  C 2.152482890625 0.560610146484375  1.262834296875 0.585909169921875  0.728430322265625 1.149391875  C 0.194983886718751 1.71378172851563  0.219375761718752 2.60343032226563  0.783765615234376 3.137834296875  L 10.0697150976562 11.9221878808594  L 0.820303037109376 20.8368666796875  C 0.261557578125 21.3759071191406  0.244674755859375 22.2656061035156  0.783765615234376 22.8253091015625  C 1.05938381835938 23.112165703125  1.42783227539063 23.2556443945312  1.79628073242188 23.2556443945312  C 2.14784639648438 23.2556443945312  2.49941203125 23.12441203125  2.77220803710938 22.8618969140625  L 13.0275332519531 12.9778423535156  C 13.0472382714844 12.9581373339844  13.0546969335938 12.9309736523437  13.074401953125 12.9103615136719  C 13.0894200878906 12.8963009179687  13.1053453710938 12.8859696386719  13.1203131152344 12.8710018945312  Z " fill-rule="nonzero" fill="#ffffff" stroke="none" transform="matrix(1 0 0 1 335 73 )" />
  </g>
</svg>