<?xml version="1.0" encoding="utf-8"?>
<svg version="1.1" xmlns:xlink="http://www.w3.org/1999/xlink" width="24px" height="26px" xmlns="http://www.w3.org/2000/svg">
  <g transform="matrix(1 0 0 1 -25 -255 )">
    <path d="M 23 22.3759448828125  C 23.2506299414063 23.9230640136719  21.985721484375 25.1879724414062  20.4386023828125 25  L 3.5613976171875 25  C 2.00923904296875 25.1879724414062  0.74937005859375 23.9281034570313  1 22.3759448828125  L 1 3.62909456054688  C 0.74937005859375 2.07693598632813  2.00923904296875 0.817067001953125  3.5613976171875 1  L 20.4335629101562 1  C 21.985721484375 0.817067001953125  23.24559046875 2.07693598632813  23 3.62909456054688  L 23 22.3759448828125  Z M 20.4335629101562 3  L 3.5613976171875 3  C 3.04737108398438 2.68671258789063  2.62405508789062 3.1100285546875  3 3.6240551171875  L 3 22.3709054394531  C 2.62405508789062 22.8899714453125  3.0473710546875 23.30824796875  3.5613976171875 23  L 20.4335629101562 23  C 20.9526289160156 23.30824796875  21.3709054394531 22.8899714746094  21 22.3709054394531  L 21 3.6240551171875  C 21.3709054394531 3.11002858398437  20.9526289453125 2.68671258789062  20.4335629101562 3  Z M 16.7144297167969 13.0226776269531  C 16.7144296875 13.5417436621094  16.2961531933594 13.96002015625  15.7770871875 14  L 5.43104317382812 14  C 4.91197716796875 13.96002015625  4.49370064453125 13.5417436621094  4.49370064453125 13.0226776269531  C 4.49370064453125 12.5036116210938  4.91197713867188 12.0853350976562  5.43104317382812 12  L 15.7770871875 12  C 16.2961531933594 12.0853350976562  16.7144297167969 12.5036115917969  16.7144297167969 13.0226776269531  Z M 19.4659835449219 18.61145640625  C 19.4659835449219 19.1305224414062  19.0477070507812 19.5487989355469  18.528641015625 19.5487989355469  L 5.42600370117188 19.5487989355469  C 4.9069376953125 19.5487989355469  4.488661171875 19.1305224414062  4.488661171875 18.61145640625  C 4.488661171875 18.0923903710937  4.90693766601563 17.6741138769531  5.42600370117188 17.6741138769531  L 18.528641015625 17.6741138769531  C 19.0477070214844 17.6741138769531  19.4659835449219 18.0923903710937  19.4659835449219 18.61145640625  Z M 5.89971442382813 5.53905592773437  C 5.12363513671875 5.53905592773437  4.49370064453125 6.16899041992188  4.49370064453125 6.94506970703125  C 4.49370064453125 7.72114899414062  5.12363513671875 8.35108348632813  5.89971442382813 8.35108348632813  C 6.6757937109375 8.35108348632813  7.305728203125 7.72114899414063  7.305728203125 6.94506970703125  C 7.305728203125 6.16899041992187  6.6757937109375 5.53905592773437  5.89971442382813 5.53905592773437  Z M 11.9722829003906 5.53905592773437  C 11.1962036132812 5.53905592773437  10.5662691210938 6.16899041992188  10.5662691210938 6.94506970703125  C 10.5662691210938 7.72114899414062  11.1962036132812 8.35108348632813  11.9722829003906 8.35108348632813  C 12.7483621875 8.35108348632813  13.3782966796875 7.72114899414063  13.3782966796875 6.94506970703125  C 13.3782966796875 6.16899041992187  12.7483621875 5.53905592773437  11.9722829003906 5.53905592773437  Z M 18.0700487109375 5.53905592773437  C 17.2939694238281 5.53905592773437  16.6640349316406 6.16899041992188  16.6640349316406 6.94506970703125  C 16.6640349316406 7.72114899414062  17.2939694238281 8.35108348632813  18.0700487109375 8.35108348632813  C 18.8461279980469 8.35108348632813  19.4760624902344 7.72114899414063  19.4760624902344 6.94506970703125  C 19.4760624902344 6.16899041992187  18.8461279980469 5.53905592773437  18.0700487109375 5.53905592773437  Z " fill-rule="nonzero" fill="#fc4024" stroke="none" transform="matrix(1 0 0 1 25 255 )" />
  </g>
</svg>