<?xml version="1.0" encoding="utf-8"?>
<svg version="1.1" xmlns:xlink="http://www.w3.org/1999/xlink" width="5px" height="8px" xmlns="http://www.w3.org/2000/svg">
  <g transform="matrix(1 0 0 1 -122 -267 )">
    <path d="M 4.28 5.38  C 4.28 6.55  3.335 7.51  2.15 7.51  L 1.475 7.51  C 0.995000000000001 7.51  0.620000000000005 7.12  0.620000000000005 6.655  C 0.620000000000005 6.175  1.01000000000001 5.8  1.475 5.8  L 2.15 5.8  C 2.375 5.8  2.57 5.605  2.57 5.38  L 2.57 2.83  C 2.57 2.605  2.375 2.41  2.15 2.41  L 1.475 2.41  C 0.995000000000001 2.41  0.620000000000005 2.02  0.620000000000005 1.555  C 0.620000000000005 1.09  1.01000000000001 0.700000000000001  1.475 0.700000000000001  L 2.15 0.700000000000001  C 3.32 0.700000000000001  4.28 1.66  4.28 2.83  L 4.28 5.38  Z " fill-rule="nonzero" fill="#666666" stroke="none" transform="matrix(1 0 0 1 122 267 )" />
  </g>
</svg>