<?xml version="1.0" encoding="utf-8"?>
<svg version="1.1" xmlns:xlink="http://www.w3.org/1999/xlink" width="29px" height="26px" xmlns="http://www.w3.org/2000/svg">
  <g transform="matrix(1 0 0 1 -320 -255 )">
    <path d="M 27.6746178710938 16.5956660839844  C 28.0928943359375 16.2882580175781  28.188644375 15.7036788085938  27.8862758398437 15.2854023144531  C 27.5839072753906 14.8671258203125  26.9993280957031 14.77137578125  26.5760120996094 15.0737443164063  L 24.9079455664062 16.2731395703125  C 25.1951956835937 15.2198891113281  25.3463799804688 14.1313623144531  25.3463799804688 13.0277170996094  C 25.3463799804688 6.28993782226563  19.8634302148437 0.812027529296877  13.1306904101562 0.812027529296877  C 6.3929111328125 0.81202755859375  0.91500083984375 6.2899378515625  0.91500083984375 13.0277171289063  C 0.91500083984375 19.76549640625  6.39795060546875 25.2434066992187  13.1306904101562 25.2434066992187  C 15.2623887207031 25.2434066992187  17.3487317480469 24.6840248828125  19.1881404394531 23.6307744238281  C 19.2889299511719 23.6106165332031  19.3846799902344 23.5803796679687  19.4753905566406 23.5249454394531  C 19.9994960351562 23.2124979296875  20.5034436523437 22.859734609375  20.9721149023438 22.4716949804687  C 21.3702335058594 22.1441290527344  21.4307072070313 21.5545103710937  21.0981018066406 21.1513522949219  C 20.7705358789063 20.7532336914062  20.1809171972656 20.6927599902344  19.7777591210938 21.025365390625  C 19.4098773828125 21.3277339550781  19.0117587792969 21.5998656542969  18.6035612304688 21.8518394335937  C 18.5430875292969 21.8719973242187  18.4775743261719 21.8820762988281  18.417100625 21.9173526074219  C 16.8246262402344 22.8698135546875  14.9952964941406 23.3687216699219  13.1256509375 23.3687216699219  C 7.42096422851563 23.3687216699219  2.78464639648438 18.7273643652344  2.78464639648438 13.0277171289063  C 2.78464639648438 7.32806989257812  7.42600370117188 2.68671258789063  13.1306904101562 2.68671258789063  C 18.8353771191406 2.68671258789063  23.4716949511719 7.323030390625  23.4716949511719 13.0277171289063  C 23.4716949511719 14.322862421875  23.2298001171875 15.5928103515625  22.7661683398438 16.7821266601562  L 21.4407861816406 13.597177890625  C 21.2392071582031 13.1184276660156  20.6899042871094 12.8966907519531  20.2161935351563 13.0932303027344  C 19.7374433105469 13.2897698535156  19.5106669238281 13.8390727246094  19.7122459472656 14.3178229492187  L 21.8237863378906 19.3824962207031  C 21.8439442285156 19.4379304492188  21.8792205664063 19.4782462597656  21.9094574316406 19.528641015625  C 21.9195363769531 19.5437594335937  21.9195363769531 19.5588778808594  21.9296153222656 19.5689568261719  C 21.9346547949219 19.5739962988281  21.9396942675781 19.5739962988281  21.9396942675781 19.5790357714844  C 22.0203258886719 19.6848647558594  22.1211154003906 19.7705358496094  22.237023359375 19.8360490527344  C 22.25718125 19.8461279980469  22.2773391699219 19.8562069433594  22.2974970605469 19.8662859179688  C 22.3932470996094 19.9116412011719  22.4990760839844 19.9469175390625  22.6099445703125 19.956996484375  C 22.6301024609375 19.956996484375  22.6452209082031 19.9519570117188  22.6653787988281 19.956996484375  C 22.6754577441406 19.956996484375  22.6804972167969 19.9620359570313  22.6905761914063 19.9620359570313  C 22.7107340820312 19.9620359570313  22.7308920019531 19.956996484375  22.7510498925781 19.9519570117188  C 22.8216025683594 19.9469175390625  22.8921552148438 19.93683859375  22.9576684179688 19.9217201464844  C 22.9727868359375 19.9166806738281  22.9879052832031 19.9116412011719  22.9979842285156 19.9066017285156  C 23.0735763769531 19.8814043359375  23.1441290234375 19.8461280273438  23.2096422265625 19.8007727441406  C 23.219721171875 19.7957332714844  23.2298001171875 19.7906937988281  23.2398790917969 19.7856543261719  L 27.6746178710938 16.5956660839844  Z M 13.9974802636719 11.6569796875  L 16.774231484375 8.97093903320313  C 17.1471526953125 8.61313624023437  17.157231640625 8.0184780859375  16.794389375 7.645556875  C 16.4365865820313 7.2726356640625  15.8419284277344 7.26255671875  15.4690072167969 7.625398984375  L 13.1306904101562 9.88308419921875  L 10.7974130761719 7.62539895507812  C 10.4244918652344 7.26759616210937  9.8298337109375 7.27263563476562  9.47203091796875 7.64555684570312  C 9.114228125 8.01847805664062  9.11926759765625 8.6131362109375  9.49218880859375 8.97093900390625  L 12.122795234375 11.5108348632813  L 12.122795234375 12.060137734375  L 10.2481102050781 12.060137734375  C 9.72904419921875 12.060137734375  9.31076767578125 12.4784142285156  9.31076767578125 12.9974802636719  C 9.31076767578125 13.5165462988281  9.72904416992187 13.9348227929687  10.2481102050781 13.9348227929687  L 12.122795234375 13.9348227929687  L 12.122795234375 14.8721653222656  L 10.2481102050781 14.8721653222656  C 9.72904419921875 14.8721653222656  9.31076767578125 15.2904418164063  9.31076767578125 15.8095078515625  C 9.31076767578125 16.3285738867188  9.72904416992187 16.7468503808594  10.2481102050781 16.7468503808594  L 12.122795234375 16.7468503808594  L 12.122795234375 18.7172854492188  C 12.122795234375 19.2363514550781  12.5410717285156 19.6546279785156  13.0601377636719 19.6546279785156  C 13.5792037988281 19.6546279785156  13.9974802929687 19.236351484375  13.9974802929687 18.7172854492188  L 13.9974802636719 16.7468503222656  L 15.8721652929687 16.7468503222656  C 16.3912312988281 16.7468503222656  16.8095078222656 16.328573828125  16.8095078222656 15.8095077929687  C 16.8095078222656 15.2904417578125  16.391231328125 14.8721652636719  15.8721652929687 14.8721652636719  L 13.9974802636719 14.8721652636719  L 13.9974802636719 13.934822734375  L 15.8721652929687 13.934822734375  C 16.3912312988281 13.934822734375  16.8095078222656 13.5165462402344  16.8095078222656 12.9974802050781  C 16.8095078222656 12.4784141699219  16.391231328125 12.0601376757812  15.8721652929687 12.0601376757812  L 13.9974802636719 12.0601376757812  L 13.9974802636719 11.6569796875  Z " fill-rule="nonzero" fill="#666666" stroke="none" transform="matrix(1 0 0 1 320 255 )" />
  </g>
</svg>