<?xml version="1.0" encoding="utf-8"?>
<svg version="1.1" xmlns:xlink="http://www.w3.org/1999/xlink" width="5px" height="6px" xmlns="http://www.w3.org/2000/svg">
  <g transform="matrix(1 0 0 1 -36 -434 )">
    <path d="M 0.392917626953125 3.93979083984375  C 0.446761093750002 4.54139293945313  0.7387031640625 5.01471202148437  1.19214572265625 5.23731111328125  C 1.23708525390625 5.25904637695312  1.282264609375 5.2781733984375  1.32840334960937 5.294602265625  C 2.17508930664063 5.59613783203125  3.19244951171875 4.99561497070312  3.7465338671875 3.86649052734375  C 4.32942865234375 2.68112419921875  4.11963091796875 1.42539559570313  3.26976712890625 1.0075988671875  C 2.40146584960938 0.59235041015625  1.30019250976563 1.18762681640625  0.715408984374999 2.37743012695313  C 0.4628901953125 2.892121171875  0.34803806640625 3.4467751171875  0.392917626953125 3.93979083984375  Z M 1.76667619140625 4.06783403320312  C 1.6933159375 4.01033299804688  1.5873677734375 3.55698038085938  1.88458624023438 2.95184065429687  C 2.18339365234375 2.34421262695312  2.60889516601562 2.15237270507813  2.6942173046875 2.17638641601562  C 2.76826708984375 2.23008  2.87703334960938 2.6831028515625  2.57768631835938 3.2922298828125  C 2.279208671875 3.89895852539062  1.85670513671875 4.09184774414062  1.76667619140625 4.06783403320312  Z " fill-rule="nonzero" fill="#666666" stroke="none" transform="matrix(1 0 0 1 36 434 )" />
  </g>
</svg>