<?xml version="1.0" encoding="utf-8"?>
<svg version="1.1" xmlns:xlink="http://www.w3.org/1999/xlink" width="21px" height="20px" xmlns="http://www.w3.org/2000/svg">
  <g transform="matrix(1 0 0 1 -28 -251 )">
    <path d="M 11.5 18.25  C 11.5 19.2895  10.87375 19.65775  10.33825 19.65775  C 9.847 19.65775  9.30325 19.363  8.722 18.7825  L 4.4395 14.5  L 2.5 14.5  C 1.2595 14.5  0.25 13.4905  0.25 12.25  L 0.25 7.75  C 0.25 6.5095  1.2595 5.5  2.5 5.5  L 4.4395 5.5  L 8.71975 1.21975  C 9.29575 0.64375  9.83875 0.352  10.33375 0.352  C 10.8715 0.352  11.5 0.71875  11.5 1.75  L 11.5 18.25  Z M 14.72575 14.806  C 14.57875 15.01  14.34925 15.118  14.11525 15.118  C 13.96375 15.118  13.81075 15.07225  13.678 14.977  C 13.342 14.7355  13.26475 14.26675  13.50625 13.93  L 13.80325 13.5235  C 14.5795 12.47125  15.25 11.5615  15.25 10  C 15.25 8.38225  14.656 7.597  13.90375 6.60325  C 13.771 6.4285  13.63825 6.2515  13.507 6.06925  C 13.2655 5.73325  13.342 5.2645  13.67875 5.02225  C 14.0155 4.77925  14.4835 4.85725  14.72575 5.194  C 14.84875 5.36575  14.9755 5.533  15.1 5.698  C 15.9115 6.7705  16.75 7.879  16.75 10  C 16.75 12.05425  15.82675 13.3075  15.01225 14.41375  L 14.72575 14.806  Z M 17.23075 17.4085  C 17.0815 17.578  16.8745 17.66425  16.66675 17.66425  C 16.49125 17.66425  16.31425 17.60275  16.1725 17.47825  C 15.86125 17.20525  15.82975 16.73125  16.10275 16.42  C 17.608 14.70325  19 12.739  19 10  C 19 7.261  17.608 5.296  16.10275 3.58075  C 15.82975 3.26875  15.86125 2.7955  16.1725 2.52175  C 16.48225 2.24875  16.95625 2.2795  17.23075 2.59075  C 18.847 4.435  20.5 6.75625  20.5 10  C 20.5 13.24375  18.847 15.56575  17.23075 17.4085  Z " fill-rule="nonzero" fill="#fc4024" stroke="none" transform="matrix(1 0 0 1 28 251 )" />
  </g>
</svg>