<?xml version="1.0" encoding="utf-8"?>
<svg version="1.1" xmlns:xlink="http://www.w3.org/1999/xlink" width="47px" height="37px" xmlns="http://www.w3.org/2000/svg">
  <g transform="matrix(1 0 0 1 -49 -49 )">
    <path d="M 42.2961862571023 0.447586064326295  L 42.2961862571023 1  L 4.56273707164418 1  C 2.15563054865057 0.447586064326295  0.205151411576701 2.186135108056  1 4.33003940493101  L 1 32.7828019607346  C 0.205151411576701 34.926665432224  2.15567592551492 36.6652553013393  4.56273707164418 36  L 42.2962316339666 36  C 44.7034289106889 36.6652553013393  46.6538172940341 34.9267062576096  46 32.7828019607346  L 46 4.33003940493101  C 46.6537719171698 2.18344063260957  44.7032927800959 0.447586064326295  42.2961862571023 0.447586064326295  Z M 4.55801787775213 3.03505817522321  L 4.55810863148083 3  L 42.2976836936257 3  C 43.1005365545099 3.03505817522321  43.7491988303445 3.61183922230113  43 4.3273449294846  L 43 19.5629705636161  C 41.4100668501421 17.8518561789773  37.3564608043324 15.54469116528  32.4907903941761 15.54469116528  C 28.0061948908025 15.54469116528  23.582086747603 18.6435012302151  19.306134066495 21.638818942776  C 16.0296068226207 23.9323891030844  12.6412256081321 26.3075283837256  10.2643400767933 26.3075283837256  C 6.92891366299715 26.3075283837256  4.07570718661222 24.1227987012987  4 23.287592963677  L 4 4.32738575487011  C 3.10650274103338 3.61453369774756  3.75670783025568 3.03505817522321  4.55801787775213 3.03505817522321  Z M 42.2978198242188 34.0751295403815  L 42.2977290704901 34  L 4.55815400834517 34  C 3.75679858398438 34.0751295403815  3.10663887162642 33.4956131924716  3.10663887162642 32.7828019607346  L 3.10663887162642 26.642174069095  C 4.84697774991123 27.7385397980925  7.36439543013139 28.8949188438515  10.2644762073864 28.8949188438515  C 13.6453248623935 28.8949188438515  17.2665801447088 26.356518846388  21.1010159357244 23.673923587155  C 24.989903963956 20.9505437677557  29.0103395219283 18.1348169262378  32.4909265247692 18.1348169262378  C 38.7279765292081 18.1348169262378  43.6766866011186 23.0291682731331  43.7281439652876 23.0780770850243  L 43.750832397461 23.0590116299716  L 43.750832397461 32.782761135349  C 43.750832397461 33.4982668425325  43.1006273082386 34.0778240158279  42.2978198242188 34.0778240158279  L 42.2978198242188 34.0751295403815  Z M 14.7051469060724 18.5673210607752  C 17.9166037264737 18.5673210607752  20.5203282026811 16.2493373199067  20.5203282026811 13.3899273158482  C 20.5203282026811 10.5277411855723  17.9166944802024 8.20698131848621  14.7051469060724 8.20698131848621  C 11.4951875221946 8.20698131848621  8.89150842285156 10.5277411855723  8.89150842285156 13.3899273158482  C 8.89150842285156 16.2492964945211  11.4951875221946 18.5673210607752  14.7051469060724 18.5673210607752  Z M 14.7263832785867 10.794371778612  C 16.3245564408736 10.794371778612  17.6218356156783 11.9479338727679  17.6218356156783 13.3735971616274  C 17.6218356156783 14.799260450487  16.3245564408736 15.9528225446429  14.7263832785867 15.9528225446429  C 13.1267126797763 15.9528225446429  11.830930941495 14.799260450487  11.830930941495 13.3735971616274  C 11.830930941495 11.9507099989854  13.1282101162997 10.794371778612  14.7263832785867 10.794371778612  Z " fill-rule="nonzero" fill="#ffffff" stroke="none" transform="matrix(1 0 0 1 49 49 )" />
  </g>
</svg>