<?xml version="1.0" encoding="utf-8"?>
<svg version="1.1" xmlns:xlink="http://www.w3.org/1999/xlink" width="24px" height="24px" xmlns="http://www.w3.org/2000/svg">
  <g transform="matrix(1 0 0 1 -369 -113 )">
    <path d="M 8.00657532087052 20.0322046623884  C 7.11674785714285 20.0322046623884  6.39970243861609 20.7492500809152  6.39970243861609 21.6390775446429  C 6.39970243861609 22.5289050083705  7.11674785714285 23.2459504268973  8.00657532087052 23.2459504268973  C 8.89640278459819 23.2459504268973  9.61344820312502 22.5289050083705  9.61344820312502 21.6390775446429  C 9.61344820312502 20.7492500809152  8.89640278459819 20.0322046623884  8.00657532087052 20.0322046623884  Z M 19.2590050697544 20.0322046623884  C 18.3691776060268 20.0322046623884  17.6521321875 20.7492500809152  17.6521321875 21.6390775446429  C 17.6521321875 22.5289050083705  18.3691776060268 23.2459504268973  19.2590050697544 23.2459504268973  C 20.1488325334822 23.2459504268973  20.8658779520089 22.5289050083705  20.8658779520089 21.6390775446429  C 20.8658779520089 20.7492500809152  20.1445129603795 20.0322046623884  19.2590050697544 20.0322046623884  Z M 23.2718677148438 5.92455185825893  C 23.3625782979911 5.151352265625  23.1509202957589 4.40406998604911  22.6800892633929 3.87708477957589  C 22.269731953125 3.41057329520089  21.7038707896205 3.16003936104911  21.0904945982143 3.16003936104911  L 4.99152888950891 3.16003936104911  L 4.9353747405134 2.83175351283482  C 4.7928295563616 1.66115525390625  3.76477648158482 0.749730050223214  2.59417822265624 0.749730050223214  L 1.57908376674106 0.749730025111608  C 1.13417004743303 0.749730025111608  0.775647313058016 1.108252734375  0.775647313058016 1.55316647879464  C 0.775647313058016 1.99808022321429  1.13417002232143 2.35660293247768  1.57908376674106 2.35660293247768  L 2.58985864955355 2.35660293247768  C 2.93974226283484 2.35660293247768  3.2982649720982 2.67624968470982  3.34146047712056 3.06500925502232  L 4.11897961774554 7.54870295758928  L 5.48395766183035 17.1424251981027  C 5.62650284598215 18.3130234570313  6.64159727678572 19.2287682087054  7.80355641462052 19  L 20.8658779268973 19  C 21.3107916462054 19.2287682087054  21.6693143805804 18.870245499442  21.6693143805804 18.4253317550223  C 21.6693143805804 17.9804180106027  21.310791671317 17.6218953013393  20.8658779268973 17.6218953013393  L 7.79923689174109 17.6218953264509  C 7.45799237444197 17.6218953264509  7.12106743024555 17.3065681222098  7.07355235212054 16.9307671958705  L 6.93964628906252 15.9934246791295  L 19.6866405970982 15.2072664425223  C 20.8442802120535 15.2072664425223  21.8636941908482 14.2915216908482  21.9976002539062 13.164118936942  L 23.2718677148438 5.92455185825893  Z " fill-rule="nonzero" fill="#2ab795" stroke="none" transform="matrix(1 0 0 1 369 113 )" />
  </g>
</svg>