<?xml version="1.0" encoding="utf-8"?>
<svg version="1.1" xmlns:xlink="http://www.w3.org/1999/xlink" width="80px" height="80px" xmlns="http://www.w3.org/2000/svg">
  <g transform="matrix(1 0 0 1 -42 -45 )">
    <path d="M 39.9999997019768 0  C 17.9086098733387 0  0 17.9086100067683  0 40  C 0 62.0913899932317  17.9086098733387 80  39.9999997019768 80  C 62.0913895306148 80  79.9999994039536 62.0913899932317  79.9999994039536 40  C 79.9999994039536 28.4218806344081  75.0808293541528 17.9926950040331  67.2184738439877 10.6884277130335  C 60.079225349562 4.05593962562369  50.5132702512867 0  39.9999997019768 0  Z M 39.7440004795392 14.016  C 46.4008726145688 14.016  51.7973337230682 19.4124611487062  51.7973337230682 26.0693333333333  C 51.7973337230682 32.7262055179605  46.4008726145688 38.1226666666666  39.7440004795392 38.1226666666666  C 33.0871283445096 38.1226666666666  27.6906672360102 32.7262055179605  27.6906672360102 26.0693333333333  C 27.6906672360102 19.4124611487062  33.0871283445096 14.016  39.7440004795392 14.016  Z M 61.3280001391173 61.856  C 47.9040002391338 67.1786666666667  33.7546670112212 67.5626666666667  18.6666671236356 61.8453333333333  C 18.5440004578829 49.4933333333333  24.5813337462346 41.824  32.1493336898486 38.8106666666667  L 39.9200002986193 51.776  L 48.1066669042905 39.1093333333333  C 55.4080001832247 42.3093333333333  61.2106668066581 49.888  61.3280001391173 61.856  Z " fill-rule="nonzero" fill="#ffffff" stroke="none" transform="matrix(1 0 0 1 42 45 )" />
  </g>
</svg>