<?xml version="1.0" encoding="utf-8"?>
<svg version="1.1" xmlns:xlink="http://www.w3.org/1999/xlink" width="22px" height="22px" xmlns="http://www.w3.org/2000/svg">
  <g transform="matrix(1 0 0 1 -293 -101 )">
    <path d="M 20.740625 7.0015625  L 19.49375 7.0015625  L 19.49375 17.5953125  C 19.49375 18.97109375  18.378125 20.08671875  17.00234375 20  L 5.7875 20  C 4.41171875 20.08671875  3.29609375 18.97109375  3.29609375 17.5953125  L 3.29609375 7.0015625  L 2 7.0015625  L 2 18.82109375  C 2.04921875 20.196875  3.16484375 21.3125  4.540625 21  L 18.24921875 21  C 19.625 21.3125  20.740625 20.196875  20.740625 18.82109375  L 20.740625 7.0015625  Z M 21.94765625 4.51015625  L 17.62578125 4.51015625  L 17.62578125 3.27265625  C 17.62578125 1.896875  16.51015625 0.78125  15.134375 0.78125  L 7.56875 0.78125  C 6.19296875 0.78125  5.16640625 1.896875  5.16640625 3.27265625  L 5.16640625 4.51015625  L 0.8421875 4.51015625  L 0.8421875 5.75703125  L 5.1640625 6  L 17.62578125 6  L 21.94765625 5.75703125  L 21.94765625 4.51015625  Z M 16.38125 4.51015625  L 6.4109375 4.51015625  L 6.4109375 3.27265625  C 6.4109375 2.5625  6.9078125 2.02578125  7.56875 2.02578125  L 15.134375 2.02578125  C 15.82109375 2.02578125  16.38125 2.5859375  16.38125 3.27265625  L 16.38125 4.51015625  Z M 8 18.36875  L 8 7.503125  L 9 7.503125  L 9 18.36875  L 8 18.36875  Z M 13.71171875 18.36875  L 13.71171875 7.503125  L 15 7.503125  L 15 18.36875  L 13.71171875 18.36875  Z " fill-rule="nonzero" fill="#666666" stroke="none" transform="matrix(1 0 0 1 293 101 )" />
  </g>
</svg>