<?xml version="1.0" encoding="utf-8"?>
<svg version="1.1" xmlns:xlink="http://www.w3.org/1999/xlink" width="5px" height="5px" xmlns="http://www.w3.org/2000/svg">
  <g transform="matrix(1 0 0 1 -40 -440 )">
    <path d="M 3.89188330078125 2.93368497070312  C 4.1045591015625 2.49592177734375  4.104049453125 2.02715958984375  3.89047426757813 1.64857625976562  C 3.50004896484375 0.953167734375  2.4235088671875 0.775658085937499  1.55778583007813 1.2630976171875  C 0.656087167968753 1.77008387695312  0.268360048828129 2.7336305859375  0.674584628906249 3.45668036132813  C 0.826611562499998 3.72754672851563  1.07205515625 3.92942982421875  1.38291439453125 4.04047456054688  C 1.87128328125 4.214416640625  2.47897127929687 4.14048673828125  3.00835233398438 3.84284856445312  C 3.400936171875 3.62210821289063  3.71512315429688 3.29916717773438  3.89188330078125 2.93368497070312  Z M 2.74863840820312 2.26858590820313  C 2.75460436523437 2.33145328125  2.6547420703125 2.54742685546875  2.37020499023437 2.7073983984375  C 2.14574715820313 2.83325305664063  1.93028326171875 2.85070125  1.82289606445313 2.81376626953125  C 1.83389859375 2.73414026367188  1.93493009765625 2.54505846679688  2.19605305664063 2.39824798828125  C 2.42215974609375 2.2714639453125  2.63891279296875 2.25443548828125  2.74863840820312 2.26858590820313  Z " fill-rule="nonzero" fill="#666666" stroke="none" transform="matrix(1 0 0 1 40 440 )" />
  </g>
</svg>