<?xml version="1.0" encoding="utf-8"?>
<svg version="1.1" xmlns:xlink="http://www.w3.org/1999/xlink" width="16px" height="21px" xmlns="http://www.w3.org/2000/svg">
  <g transform="matrix(1 0 0 1 -24 -436 )">
    <path d="M 14.9408600488281 9.75399276367187  C 16.0614403515625 7.3942626953125  15.5238148632812 5.38880239257812  13.3653982714844 3.94147369140625  L 8.9421971875 1.21758047851563  L 8.8511189453125 1.17096208984375  C 7.70157833007812 0.68457185546875  6.4430916015625 0.766776132812499  5.4191658203125 1.362921953125  C 4.5241826171875 1.88414857421875  3.91112828125 2.74852251953125  3.73742602539062 3.73491373046875  C 3.55119229492187 4.793496015625  3.90300375976562 5.97250665039063  4.2434529296875 7.11263362304688  C 4.61586044921875 8.36002788085937  5.00067953125 9.650353046875  4.5870799609375 10.5489937597656  C 4.16922326171875 11.456898203125  3.55149208984375 11.8452548828125  2.83626701171875 12.2940806054688  C 2.0699865625 12.7754342382813  1.20120557617187 13.3208244824219  0.572801640624997 14.5372797167969  C 0.0908783886718716 15.469617578125  0.0240836816406222 16.5396820996094  0.389625830078122 17.4727094921875  C 0.681358046874998 18.2167150585938  1.39649318359375 19.2364436816406  3.14709627929687 19.8693745410156  L 3.16748245117187 19.8766296191406  C 5.28938379882812 20.6323572167969  7.47388272460937 18.9343684667969  8.32092841796875 17.7430961523438  C 8.33408948242187 17.7291855859375  8.34161438476562 17.7105981835938  8.35357626953125 17.6954284667969  C 8.38172719726562 17.6545361816406  8.41260625 17.6125946289063  8.43739943359375 17.5731713476563  L 8.42975461914062 17.5687043652344  C 8.43964791015625 17.5479584277344  8.45670633789062 17.5329086230469  8.46459100585937 17.5107836230469  C 8.58816721679687 17.1638588476563  8.40706 16.7824274511719  8.06007525390625 16.6588512402344  C 7.77233034179687 16.556380703125  7.46962556640625 16.6709930078125  7.30125973632812 16.9084320214844  L 7.29304530273437 16.9036053027344  C 6.1250072265625 18.1934507910156  4.95810838867187 19.1315447558594  3.5904356640625 18.6444350195312  C 2.5671994140625 18.2746057714844  1.88009526367187 17.705111875  1.60248349609375 16.9972018457031  C 1.3738884765625 16.4134376464844  1.4200271875 15.735057578125  1.72968724609375 15.1357039550781  C 2.19518163085937 14.2352944433594  2.81321262695312 13.8470576464844  3.52897732421875 13.3977223046875  C 4.30748948242187 12.9086039160156  5.19033091796875 12.3540099414062  5.7706474609375 11.0934246191406  C 6.38966775390625 9.74871633789062  5.93316727539062 8.21882359375  5.4916866015625 6.73983633789062  C 5.1810671875 5.699121953125  4.88732634765625 4.71602848632812  5.02022625976562 3.96087047851562  C 5.12728366210937 3.35315250976562  5.51153315429687 2.81645637695312  6.0745214453125 2.48895844726562  C 6.70475415039062 2.12224708984374  7.481617421875 2.05961954101562  8.20607625976562 2.317624609375  C 8.23902393554687 2.329376640625  8.2720615234375 2.341818203125  8.3049192578125 2.35485935546875  L 12.6612956347656 5.03702083984374  C 14.2532462792969 6.10498676757812  14.6037086816406 7.42631089843749  13.7652671289062 9.19283321289062  C 12.754742265625 11.2989052832031  11.4738307128906 12.5363762792969  10.33253453125 13.6057812402344  L 10.3357123632812 13.6090190429687  C 10.2664293261719 13.6773427246094  10.2077591113281 13.7575383496094  10.1729227246094 13.8553620214844  C 10.0493465136719 14.2023467675781  10.2304237304687 14.5837781640625  10.5773785058594 14.7073244042969  C 10.8227021875 14.7946851660156  11.0811269628906 14.7240230957031  11.25755734375 14.5558670898437  L 11.2616045898437 14.5600342773437  C 12.4038601269531 13.4831943847656  13.8752625390625 11.9748270507812  14.9408600488281 9.75399276367187  Z " fill-rule="nonzero" fill="#666666" stroke="none" transform="matrix(1 0 0 1 24 436 )" />
  </g>
</svg>