<?xml version="1.0" encoding="utf-8"?>
<svg version="1.1" xmlns:xlink="http://www.w3.org/1999/xlink" width="4px" height="6px" xmlns="http://www.w3.org/2000/svg">
  <g transform="matrix(1 0 0 1 -33 -432 )">
    <path d="M 0.395280009765624 2.538656796875  C -0.0727326757812499 3.85272584960938  0.297965986328125 5.14475984375  1.2390579296875 5.4799326171875  C 2.18011990234375 5.81510536132813  3.28409139648437 5.04825529296875  3.75210408203125 3.73418624023438  C 4.2199069140625 2.42068680664063  3.8489983984375 1.12928237304688  2.90790645507812 0.794109599609375  C 1.96681451171875 0.458936826171875  0.863082841796874 1.22515736328125  0.395280009765624 2.538656796875  Z M 1.62252794921875 2.97573045898437  C 1.8830512890625 2.24407651367188  2.3549013671875 1.97998557617187  2.47086276367187 2.02126756835938  C 2.58682413085938 2.06254958984375  2.785499453125 2.56545860351563  2.52491611328125 3.29711254882813  C 2.26403297851563 4.02966587890625  1.79206298828125 4.29405661132813  1.67613159179687 4.25277461914063  C 1.56017022460937 4.21146262695313  1.36161484375 3.7082837890625  1.62252794921875 2.97573045898437  Z " fill-rule="nonzero" fill="#666666" stroke="none" transform="matrix(1 0 0 1 33 432 )" />
  </g>
</svg>