<?xml version="1.0" encoding="utf-8"?>
<svg version="1.1" xmlns:xlink="http://www.w3.org/1999/xlink" width="24px" height="24px" xmlns="http://www.w3.org/2000/svg">
  <g transform="matrix(1 0 0 1 -19 -480 )">
    <path d="M 23.7008613818182 3.63265391770335  C 24.0472538181818 3.97904633110045  24.0472538181818 4.53982998660285  23.7008613818182 4.88622244593302  L 11.5168840191388 17.5574525856459  L 7.08731324784689 17.5574525856459  L 7.08731324784689 13.1278818143541  L 19.3155863196172 0.500947383732068  C 19.6619787559809 0.154554924401907  20.2227624114833 0.154554924401907  20.5691548478469 0.500947383732068  L 23.7008613818182 3.63265391770335  Z M 21.8218374430622 4.25988112535885  L 19.9419276401914 2.37997127655501  L 8.85914154258374 14.0137959732057  L 8.85914154258374 15.7856242679426  L 10.6309698602871 15.7856242679426  L 21.8218374430622 4.25988112535885  Z M 13.1779730526316 1.66592449377993  C 13.1779730526316 2.30732633110046  13.0450859253589 2.49602604401912  12.4027981779904 2.49602604401912  L 2 2.49602604401912  L 2 22  L 21 22  L 21 11.3551675866029  C 21.2619396976077 10.7128798392345  21.449753523445 10.5799927119617  22.0920412937799 10.5799927119617  C 22.7352149511962 10.5799927119617  23.033768015311 10.7128798392345  23 11.3551675866029  L 23 21.98613744689  C 23.033768015311 22.8419305033493  22.1177327770335 23.7579657645933  21.2619396976077 23.7579657645933  L 1.77182831770335 23.7579657645933  C 0.916035238277512 23.7579657645933  0 22.8419305033493  0 21.98613744689  L 0 2.49602604401912  C 0 1.63934705454545  0.916035238277512 0.724197726315765  1.77182831770335 1  L 12.4027981779904 1  C 13.0450859253589 0.724197726315765  13.1779730526316 1.02363672344501  13.1779730526316 1.66592449377993  Z " fill-rule="nonzero" fill="#666666" stroke="none" transform="matrix(1 0 0 1 19 480 )" />
  </g>
</svg>