<?xml version="1.0" encoding="utf-8"?>
<svg version="1.1" xmlns:xlink="http://www.w3.org/1999/xlink" width="4px" height="4px" xmlns="http://www.w3.org/2000/svg">
  <g transform="matrix(1 0 0 1 -15 -596 )">
    <path d="M 3.99094313476563 2.06250163085937  C 3.9909131640625 3.05875616210938  3.18035271484375 3.8694365234375  2.18385833007813 3.8694365234375  C 1.18733397460937 3.8694365234375  0.376773525390625 3.05875616210938  0.376773525390625 2.06250163085937  C 0.376773525390625 1.06597727539062  1.18733397460938 0.2552969140625  2.18385833007813 0.2552969140625  C 3.18038268554688 0.2552969140625  3.99094313476563 1.06597727539062  3.99094313476563 2.06250163085937  Z M 3.04835221679688 2.06247163085938  C 3.04835221679688 1.58558498046875  2.66047518554687 1.19782786132813  2.18385833007813 1.19782786132813  C 1.70724147460938 1.19782786132813  1.31933447265625 1.58558495117187  1.31933447265625 2.06247163085938  C 1.31933447265625 2.53908848632813  1.70721150390625 2.92684557617187  2.18385833007813 2.92684557617187  C 2.66047518554687 2.92684557617187  3.04835221679688 2.53908848632813  3.04835221679688 2.06247163085938  Z " fill-rule="nonzero" fill="#666666" stroke="none" transform="matrix(1 0 0 1 15 596 )" />
  </g>
</svg>