<?xml version="1.0" encoding="utf-8"?>
<svg version="1.1" xmlns:xlink="http://www.w3.org/1999/xlink" width="30px" height="30px" xmlns="http://www.w3.org/2000/svg">
  <g transform="matrix(1 0 0 1 -13 -680 )">
    <path d="M 17.89927734375 29.277392578125  C 17.784228515625 29.67984375  17.41640625 29.957314453125  16.997841796875 29.957314453125  L 12.991845703125 29.957314453125  C 12.57328125 29.957314453125  12.2054296875 29.67984375  12.09041015625 29.277392578125  L 10.861611328125 24.976904296875  L 6.95109375 27.149326171875  C 6.58505859375 27.352587890625  6.12873046875 27.2886328125  5.832802734375 26.992587890625  L 3.000146484375 24.1590234375  C 2.704248046875 23.8630078125  2.640380859375 23.406767578125  2.843642578125 23.040908203125  L 5.016064453125 19.13068359375  L 0.714990234374999 17.901591796875  C 0.312539062499999 17.786572265625  0.0350683593749992 17.41875  0.0350683593749992 17.00015625  L 0.0350683593749992 12.99380859375  C 0.0350683593749992 12.57521484375  0.312597656249999 12.207333984375  0.715078124999999 12.09234375  L 5.015712890625 10.8638671875  L 2.843583984375 6.95373046875  C 2.640322265625 6.587841796875  2.704248046875 6.131513671875  3.000205078125 5.83552734375  L 5.832861328125 3.00287109375  C 6.12890625 2.70685546875  6.58529296875 2.643017578125  6.95109375 2.84625  L 10.86158203125 5.01884765625  L 12.09041015625 0.718007812500004  C 12.205400390625 0.315527343750004  12.573251953125 0.0380566406250045  12.991845703125 0.0380566406250045  L 16.997841796875 0.0380566406250045  C 17.41640625 0.0380566406250045  17.784287109375 0.315527343750004  17.89927734375 0.718007812500004  L 19.12810546875 5.018818359375  L 23.038564453125 2.84625  C 23.404423828125 2.64298828125  23.860751953125 2.70685546875  24.15673828125 3.0028125  L 26.989775390625 5.835498046875  C 27.285791015625 6.131484375  27.349716796875 6.5878125  27.146455078125 6.95373046875  L 24.974208984375 10.8638671875  L 29.2749609375 12.09234375  C 29.67744140625 12.207333984375  29.954970703125 12.575185546875  29.954970703125 12.99380859375  L 29.954970703125 17.00015625  C 29.954970703125 17.418720703125  29.6775 17.786572265625  29.275048828125 17.901591796875  L 24.97388671875 19.13068359375  L 27.14642578125 23.04087890625  C 27.3496875 23.406767578125  27.2858203125 23.86306640625  26.98986328125 24.159052734375  L 24.156826171875 26.9926171875  C 23.8608984375 27.2886328125  23.404599609375 27.3526171875  23.03859375 27.149326171875  L 19.128076171875 24.976904296875  L 17.89927734375 29.277392578125  Z M 12.339931640625 23.32634765625  L 13.698955078125 28.082314453125  L 16.290703125 28.082314453125  L 17.64966796875 23.32634765625  C 17.728271484375 23.051337890625  17.928076171875 22.82724609375  18.1923046875 22.71779296875  C 18.4565625 22.608369140625  18.756328125 22.625478515625  19.00634765625 22.764404296875  L 23.330888671875 25.1668359375  L 25.16390625 23.333466796875  L 22.76126953125 19.009130859375  C 22.622373046875 18.759111328125  22.60517578125 18.45931640625  22.71462890625 18.19505859375  C 22.824052734375 17.93080078125  23.048173828125 17.730966796875  23.32318359375 17.652392578125  L 28.0798828125 16.293134765625  L 28.0798828125 13.701123046875  L 23.323564453125 12.342509765625  C 23.048525390625 12.263935546875  22.824404296875 12.064130859375  22.714951171875 11.799873046875  C 22.60546875 11.5355859375  22.62263671875 11.2358203125  22.761533203125 10.98580078125  L 25.16384765625 6.661494140625  L 23.3309765625 4.828828125  L 19.006376953125 7.2315234375  C 18.75638671875 7.370419921875  18.4565625 7.387646484375  18.192333984375 7.2781640625  C 17.928046875 7.1687109375  17.728212890625 6.94458984375  17.64966796875 6.669580078125  L 16.29064453125 1.913203125  L 13.698955078125 1.913203125  L 12.339931640625 6.669580078125  C 12.261357421875 6.944619140625  12.0615234375 7.1687109375  11.797265625 7.2781640625  C 11.533037109375 7.38755859375  11.2332421875 7.370419921875  10.98322265625 7.2315234375  L 6.65865234375 4.828828125  L 4.826015625 6.66146484375  L 7.2282421875 10.98580078125  C 7.367138671875 11.235849609375  7.38427734375 11.53564453125  7.27482421875 11.799873046875  C 7.16537109375 12.06416015625  6.941220703125 12.26396484375  6.6662109375 12.342509765625  L 1.9100390625 13.70109375  L 1.9100390625 16.293134765625  L 6.66662109375 17.652392578125  C 6.94166015625 17.73099609375  7.165751953125 17.930830078125  7.27517578125 18.19505859375  C 7.384599609375 18.459345703125  7.367431640625 18.75908203125  7.22853515625 19.0091015625  L 4.82595703125 23.33349609375  L 6.658740234375 25.166806640625  L 10.983251953125 22.764404296875  C 11.233271484375 22.625537109375  11.53306640625 22.608369140625  11.797294921875 22.71779296875  C 12.061552734375 22.82724609375  12.261357421875 23.0513671875  12.339931640625 23.32634765625  Z M 19.35791015625 19.360869140625  C 18.192568359375 20.526005859375  16.643115234375 21.167666015625  14.994990234375 21.167666015625  C 11.592421875 21.167666015625  8.82427734375 18.4001953125  8.82427734375 14.99853515625  C 8.82427734375 11.5955859375  11.592421875 8.82708984375  14.994990234375 8.82708984375  C 16.643173828125 8.82708984375  18.19265625 9.46904296875  19.358056640625 10.63470703125  C 20.523369140625 11.8003125  21.16517578125 13.350087890625  21.16517578125 14.99853515625  C 21.16517578125 16.646455078125  20.523369140625 18.195703125  19.35791015625 19.360869140625  Z M 19.290146484375 14.99853515625  C 19.29017578125 12.62947265625  17.363349609375 10.70208984375  14.994990234375 10.70208984375  C 12.62630859375 10.70208984375  10.69927734375 12.62947265625  10.69927734375 14.99853515625  C 10.69927734375 17.36630859375  12.62630859375 19.292666015625  14.994990234375 19.292666015625  C 17.363349609375 19.292666015625  19.290146484375 17.36630859375  19.290146484375 14.99853515625  Z " fill-rule="nonzero" fill="#666666" stroke="none" transform="matrix(1 0 0 1 13 680 )" />
  </g>
</svg>