<?xml version="1.0" encoding="utf-8"?>
<svg version="1.1" xmlns:xlink="http://www.w3.org/1999/xlink" width="24px" height="22px" xmlns="http://www.w3.org/2000/svg">
  <g transform="matrix(1 0 0 1 -35 -8 )">
    <path d="M 13.8936361171875 21.0799098125  L 13.8936361171875 15.087164890625  L 10.1263423359375 15.087164890625  L 10.1263423359375 21.0959069609375  C 10.0086061640625 21.1019748359375  9.91468584375 21.111088671875  9.8207415234375 21.111088671875  C 8.0419635234375 21.111088671875  6.26227415625 21.112048015625  4.48337625 21.111088671875  C 3.872126671875 21.111088671875  3.4610933671875 20.7190265  3.4583831953125 20.069738703125  C 3.4460315625 17.60411440625  3.4497970078125 15.13645146875  3.46111734375 12.670827171875  C 3.46111734375 12.5408113203125  3.5598823828125 12.3745320546875  3.6595348125 12.28579221875  C 5.2693713515625 10.8634605546875  6.887674125 9.4502187265625  8.5032427734375 8.035873671875  C 9.57864965625 7.09441596875  10.6531451484375 6.1528863359375  11.72852803125 5.2124119765625  C 11.8120873828125 5.1398131953125  11.8975893984375 5.0693010078125  12.0028300546875 4.979457921875  C 12.6444910078125 5.540005859375  13.28329790625 6.097411953125  13.9211694140625 6.6558493203125  C 16.025454703125 8.4975846171875  18.1270058671875 10.34332521875  20.237023265625 12.178009296875  C 20.4638854453125 12.374508078125  20.5606838203125 12.5740767734375  20.5587651328125 12.8915974765625  C 20.5455021328125 15.232338453125  20.549243578125 17.573894890625  20.5540643203125 19.91353259375  C 20.5549517109375 20.3389801484375  20.45529928125 20.7089293203125  20.1012273515625 20.9438260625  C 19.973082234375 21.029352078125  19.8107842734375 21.103054109375  19.663692 21.1040374296875  C 17.775764015625 21.114110609375  15.88783603125 21.108978078125  14.0009633203125 21.108018734375  C 13.9734300234375 21.108066734375  13.94481740625 21.0949476171875  13.8936361171875 21.0799098125  Z M 16.72884984375 4.488726640625  C 16.72884984375 3.4998291171875  16.7279144765625 2.5865762890625  16.72884984375 1.674234875  C 16.729737234375 1.091621890625  16.8607364296875 0.952516203125  17.4084290859375 0.951532859375  C 18.258916453125 0.951532859375  19.10937984375 0.950573515625  19.9598672109375 0.952516203125  C 20.3984098828125 0.953619453125  20.55017896875 1.117812125  20.5512102890625 1.61077390625  C 20.553176953125 3.563290109375  20.5578298125 5.516957515625  20.5454781796875 7.46947371875  C 20.5435594921875 7.7708773671875  20.6233293984375 7.9643541875  20.8462822265625 8.1558883203125  C 21.7785061875 8.9522683671875  22.6925025 9.7707614375  23.61131953125 10.58424190625  C 24.06209390625 10.9834752265625  24.0735341484375 11.177911390625  23.6938475859375 11.6527894296875  C 23.4642272578125 11.941073984375  23.239307765625 12.23441909375  23.00762484375 12.52174428125  C 22.722913875 12.8774950859375  22.4874655078125 12.899704015625  22.1467525078125 12.59724509375  C 18.8844363515625 9.7061732421875  15.62209621875 6.813158703125  12.358748765625 3.9211275078125  C 12.2458093359375 3.8213551484375  12.130039828125 3.7235015  11.9980093359375 3.6085474296875  C 11.26434675 4.257835203125  10.5362963671875 4.8999518515625  9.8101646953125 5.5440111875  C 7.162000171875 7.890820015625  4.5137876484375 10.238444328125  1.8655511484375 12.585109296875  C 1.50677840625 12.90361334375  1.283801578125 12.8845702578125  0.9819662109375 12.5095125546875  C 0.732199546875 12.1980357265625  0.4836320859375 11.8844963046875  0.23779875 11.5701414453125  C -0.0488788828124999 11.203190234375  -0.0374386406249999 10.966254875  0.3089824921875 10.6568406640625  C 1.786812515625 9.34334721875  3.2685519140625 8.0348663515625  4.7492359921875 6.7244428203125  C 6.722522109375 4.9774912578125  8.697774890625 3.232650265625  10.67017359375 1.48270071875  C 11.5651987734375 0.689342609375002  12.436575984375 0.689342609375002  13.3335918046875 1.4887446171875  C 14.393793 2.4332242578125  15.45696815625 3.373818546875  16.518992109375 4.31525225  C 16.5694059375 4.359718109375  16.6225299140625 4.4009701484375  16.72884984375 4.488726640625  Z " fill-rule="nonzero" fill="#2ab795" stroke="none" transform="matrix(1 0 0 1 35 8 )" />
  </g>
</svg>