<?xml version="1.0" encoding="utf-8"?>
<svg version="1.1" xmlns:xlink="http://www.w3.org/1999/xlink" width="20px" height="20px" xmlns="http://www.w3.org/2000/svg">
  <g transform="matrix(1 0 0 1 -335 -306 )">
    <path d="M 19.375 10  C 19.375 15.1696320591518  15.1696320591518 19.375  10 19.375  C 4.83036794084819 19.375  0.625 15.1696320591518  0.625 10  C 0.625 4.83036794084819  4.83036794084819 0.625  10 0.625  C 15.1696320591518 0.625  19.375 4.83036794084819  19.375 10  Z M 18.0357142857143 10  C 18.0357142857143 5.56896394391742  14.4310360560826 1.96428571428572  10 1.96428571428572  C 5.56896394391742 1.96428571428572  1.96428571428572 5.56896394391742  1.96428571428572 10  C 1.96428571428572 14.4310360560826  5.56896394391742 18.0357142857143  10 18.0357142857143  C 14.4310360560826 18.0357142857143  18.0357142857143 14.4310360560826  18.0357142857143 10  Z M 14.4758889020648 10.501660686384  C 14.6734429827009 10.3053664969308  14.7236594587054 10.0160548758371  14.6238744698661 9.77299998604911  C 14.6231905133928 9.77033616768972  14.6198427594866 9.7676363560268  14.6185108398437 9.76497255859374  C 14.5863650948661 9.68930588727682  14.5421602120535 9.6169869698661  14.4805685546875 9.55471135602676  C 14.4798845982143 9.55402739955355  14.479236655971 9.55402739955355  14.4785526994978 9.55337945731026  C 14.4778687430245 9.55269550083705  14.4778687430245 9.55204755859376  14.4772208007813 9.55136360212055  L 11.1517749162946 6.21655837053572  C 10.8906133021763 5.95539675641737  10.4673911063058 5.95338090122766  10.2048975725447 6.21522647181922  C 9.94305200195311 6.47638808593746  9.94240405970982 6.90025824497769  10.2035656738281 7.1621038155692  L 12.3658614397322 9.33041117466519  L 5.98214285714283 9.33041113281251  C 5.61248489118304 9.33041113281251  5.31251799665176 9.63041402064732  5.31251799665176 10.0000719866072  C 5.31251799665176 10.369729952567  5.61252088448663 10.6697328404018  5.98214285714283 10.6697328404018  L 12.4013549386161 10.6697328404018  L 10.1808152692522 12.8661542131696  C 9.9176377999442 13.1266318708148  9.91562194475443 13.5498540876116  10.1754516392299 13.8130315569196  C 10.3060144391741 13.9456102329799  10.478802280971 14.0119175571987  10.6515541294643 14.0119175571987  C 10.8216421595982 14.0119175571987  10.9917301897322 13.946978125  11.1223289829799 13.818395186942  L 14.4758889020648 10.501660686384  Z " fill-rule="nonzero" fill="#cccccc" stroke="none" transform="matrix(1 0 0 1 335 306 )" />
  </g>
</svg>