<?xml version="1.0" encoding="utf-8"?>
<svg version="1.1" xmlns:xlink="http://www.w3.org/1999/xlink" width="24px" height="20px" xmlns="http://www.w3.org/2000/svg">
  <g transform="matrix(1 0 0 1 -11 -259 )">
    <path d="M 23.2541576015625 7.0025196953125  C 23.2501259765625 3.69259196875  20.557030078125 0.999496046875  17.2511338828125 0.999496046875  C 15.7070384765625 0.999496046875  14.239543078125 1.58407525  13.11876365625 2.6524441328125  C 13.0099109765625 2.75323365625  12.4454896875 3.3257181015625  12.01007896875 3.769192  L 10.90139428125 2.664538890625  C 9.7806148359375 1.5921384296875  8.3090878828125 0.999496046875  6.75289771875 0.999496046875  C 3.4429699453125 0.999496046875  0.753905624999997 3.69259196875  0.753905624999997 6.998488140625  C 0.753905624999997 8.9296153046875  1.71745340625 10.3809843671875  2.5479590390625 11.2759952734375  L 9.9741307265625 18.7787669921875  C 10.5627415078125 19.3673777734375  11.2158575859375 19.750377953125  12.0060474140625 19.750377953125  C 12.7962372421875 19.750377953125  13.4493533203125 19.3673777734375  14.0379641015625 18.7787669921875  L 21.4601041875 11.2800268515625  L 21.5125147265625 11.2235847109375  C 22.40752565625 10.10683684375  23.2541576015625 9.0505626953125  23.2541576015625 7.0025196953125  Z " fill-rule="nonzero" fill="#999999" stroke="none" transform="matrix(1 0 0 1 11 259 )" />
  </g>
</svg>