<?xml version="1.0" encoding="utf-8"?>
<svg version="1.1" xmlns:xlink="http://www.w3.org/1999/xlink" width="20px" height="20px" xmlns="http://www.w3.org/2000/svg">
  <g transform="matrix(1 0 0 1 -289 -259 )">
    <path d="M 19.7584411328125 3.24911809375  C 19.750377953125 2.007391234375  18.7384512109375 0.999496046875  17.5007559296875 1  L 2.503275671875 1  C 1.2615488125 0.999496046875  0.253653625000001 2.007391234375  0.253653625000001 3.24911809375  L 0.253653625000001 15.2471023046875  C 0.253653625000001 16.4888291640625  1.2615488125 17.4967243515625  2.503275671875 17.4967243515625  L 7.4419620390625 17.4967243515625  L 9.4738787265625 19.5286410390625  C 9.6190156328125 19.6737779453125  9.8125315 19.7503779765625  10.006047390625 19.7503779765625  C 10.19956328125 19.7503779765625  10.3890475703125 19.6778095234375  10.5382160546875 19.5286410390625  L 12.5701327421875 17.4967243515625  L 17.508819109375 17.4967243515625  C 18.75054596875 17.4967243515625  19.75844115625 16.4888291640625  19.75844115625 15.2471023046875  L 19.7584411328125 3.24911809375  Z M 6.9984881640625 8.8731731875  C 6.9984881640625 9.4940366171875  6.4945405703125 9.9979842109375  5.873677140625 9.9979842109375  C 5.2528137109375 9.9979842109375  4.7488661171875 9.4940366171875  4.7488661171875 8.8731731875  C 4.7488661171875 8.2523097578125  5.2528137109375 7.7483621640625  5.873677140625 7.7483621640625  C 6.4945405703125 7.7483621640625  6.9984881640625 8.2523097578125  6.9984881640625 8.8731731875  Z M 11.497732234375 8.8731731875  C 11.497732234375 9.4940366171875  10.993784640625 9.9979842109375  10.3729212109375 9.9979842109375  C 9.75205778125 9.9979842109375  9.2481101875 9.4940366171875  9.2481101875 8.8731731875  C 9.2481101875 8.2523097578125  9.75205778125 7.7483621640625  10.3729212109375 7.7483621640625  C 10.993784640625 7.7483621640625  11.497732234375 8.2523097578125  11.497732234375 8.8731731875  Z M 16.00100790625 8.8731731875  C 16.00100790625 9.4940366171875  15.493028734375 9.9979842109375  14.8761968828125 9.9979842109375  C 14.255333453125 9.9979842109375  13.751385859375 9.4940366171875  13.751385859375 8.8731731875  C 13.751385859375 8.2523097578125  14.255333453125 7.7483621640625  14.8761968828125 7.7483621640625  C 15.4970603125 7.7483621640625  16.00100790625 8.2523097578125  16.00100790625 8.8731731875  Z " fill-rule="nonzero" fill="#999999" stroke="none" transform="matrix(1 0 0 1 289 259 )" />
  </g>
</svg>