<?xml version="1.0" encoding="utf-8"?>
<svg version="1.1" xmlns:xlink="http://www.w3.org/1999/xlink" width="5px" height="8px" xmlns="http://www.w3.org/2000/svg">
  <g transform="matrix(1 0 0 1 -119 -267 )">
    <path d="M 4.97 6.625  C 4.97 7.12  4.58 7.51  4.115 7.51  C 2.24 7.51  0.709999999999997 5.98  0.709999999999997 4.105  C 0.709999999999997 2.23  2.225 0.699999999999999  4.115 0.699999999999999  C 4.595 0.699999999999999  4.97 1.09  4.97 1.555  C 4.97 2.02  4.58 2.41  4.115 2.41  C 3.185 2.41  2.435 3.16  2.435 4.09  C 2.435 5.02  3.185 5.77  4.115 5.77  C 4.595 5.77  4.97 6.16  4.97 6.625  Z " fill-rule="nonzero" fill="#666666" stroke="none" transform="matrix(1 0 0 1 119 267 )" />
  </g>
</svg>