<?xml version="1.0" encoding="utf-8"?>
<svg version="1.1" xmlns:xlink="http://www.w3.org/1999/xlink" width="14px" height="14px" xmlns="http://www.w3.org/2000/svg">
  <g transform="matrix(1 0 0 1 -189 -266 )">
    <path d="M 13.0094071965318 6.76355861271676  C 13.0026531863705 10.3195338844419  10.1216473526803 13.2005397052101  6.56567208092486 13.207293699422  C 3.00689544462598 13.207293699422  0.121936965317921 10.3223352201139  0.121936965317921 6.76355858381503  C 0.121936965317921 3.20478194751615  3.00689544462598 0.319823468208092  6.56567208092486 0.319823468208092  C 10.1244487172237 0.319823468208092  13.0094071965318 3.20478194751615  13.0094071965318 6.76355858381503  Z M 6.56567208092486 2.09952176300578  L 6.56567208092486 2.16089066473988  C 3.98979565618062 2.16089066473988  1.90163523121387 4.24905108970664  1.90163523121387 6.82492751445087  C 1.90163523121387 9.4008039391951  3.98979565618062 11.4889643641618  6.56567208092486 11.4889643641618  C 9.14154850566909 11.4889643641618  11.2297089306358 9.4008039391951  11.2297089306358 6.82492751445087  C 11.2299781013587 6.80447231488045  11.2301126910894 6.78401556574769  11.2301126910894 6.76355859524022  C 11.2301126910894 4.18768217049598  9.14195226612263 2.09952174552923  6.5660758413784 2.09952174552923  Z " fill-rule="nonzero" fill="#666666" stroke="none" transform="matrix(1 0 0 1 189 266 )" />
  </g>
</svg>