<?xml version="1.0" encoding="utf-8"?>
<svg version="1.1" xmlns:xlink="http://www.w3.org/1999/xlink" width="30px" height="25px" xmlns="http://www.w3.org/2000/svg">
  <g transform="matrix(1 0 0 1 -23 -331 )">
    <path d="M 29.0676970019531 8.25314961914063  C 29.0626574707031 4.1157399609375  25.6962875976563 0.74937005859375  21.5639173535156 0.74937005859375  C 19.6337980957031 0.74937005859375  17.7994288476562 1.4800940625  16.3984545703125 2.81555516601562  C 16.2623887207031 2.9415420703125  15.556862109375 3.65714762695313  15.0125987109375 4.21149  L 13.6267428515625 2.83067361328125  C 12.2257685449219 1.49017303710937  10.3863598535156 0.74937005859375  8.4411221484375 0.74937005859375  C 4.30371243164062 0.74937005859375  0.942382031249996 4.1157399609375  0.942382031249996 8.24811017578125  C 0.942382031249996 10.6620191308594  2.1468167578125 12.4762304589844  3.18494879882812 13.5949940917969  L 12.4676634082031 22.9734587402344  C 13.2034268847656 23.7092222167969  14.0198219824219 24.1879724414063  15.0075592675781 24.1879724414063  C 15.9952965527344 24.1879724414063  16.8116916503906 23.7092222167969  17.5474551269531 22.9734587402344  L 26.825130234375 13.6000335644531  L 26.8906434082031 13.5294808886719  C 28.0094070703125 12.1335460546875  29.0676970019531 10.8132033691406  29.0676970019531 8.25314961914063  Z " fill-rule="nonzero" fill="#fc4024" stroke="none" transform="matrix(1 0 0 1 23 331 )" />
  </g>
</svg>