<?xml version="1.0" encoding="utf-8"?>
<svg version="1.1" xmlns:xlink="http://www.w3.org/1999/xlink" width="4px" height="5px" xmlns="http://www.w3.org/2000/svg">
  <g transform="matrix(1 0 0 1 -39 -437 )">
    <path d="M 0.548817871093757 1.69476893554687  C -0.0297298437500011 2.5930798828125  0.0794861230468733 3.65894724609375  0.797349384765628 4.12123379882813  C 0.878564306640627 4.17381814453125  0.966524687500002 4.21692890625  1.0576029296875 4.24936693359375  C 1.76047638671875 4.49969721679687  2.60362471679688 4.12681001953125  3.10851241210938 3.34239184570312  C 3.68631065429688 2.44420081054687  3.57766433593751 1.37848338867187  2.85983101562501 0.916226777343748  C 2.15578834960938 0.462574365234374  1.12041033203126 0.808239990234375  0.548817871093757 1.69476893554687  Z M 1.50367049804687 3.02340811523438  C 1.4665556640625 2.95511443359375  1.45519336914062 2.69315203125  1.64394540039062 2.40016069335937  C 1.8416313671875 2.09349861328125  2.09867708007813 1.99930248046875  2.147723828125 2.00562817382813  C 2.18933561523437 2.05758295898438  2.21101090820313 2.3303380078125  2.01320502929687 2.6373298828125  C 1.82457291015625 2.93005142578125  1.58140779296875 3.028804453125  1.50367049804687 3.02340811523438  Z " fill-rule="nonzero" fill="#666666" stroke="none" transform="matrix(1 0 0 1 39 437 )" />
  </g>
</svg>