<?xml version="1.0" encoding="utf-8"?>
<svg version="1.1" xmlns:xlink="http://www.w3.org/1999/xlink" width="6px" height="8px" xmlns="http://www.w3.org/2000/svg">
  <g transform="matrix(1 0 0 1 -28 -429 )">
    <path d="M 1.86649250976562 7.72483455078125  C 2.036717109375 7.78545344726562  2.21398690429687 7.822238515625  2.39281567382812 7.83396057617187  C 3.81004479492188 7.9261180859375  5.01915500976562 6.4820271875  5.14542940429687 4.54623965820312  C 5.25311639648437 2.89214114257812  4.52260168945312 1.45002889648437  3.3688339453125 1.03909750976562  C 3.19833955078125 0.978388671875  3.02133955078125 0.941693544921875  2.84257075195312 0.930001484375  C 2.12788532226562 0.88341306640625  1.42069479492188 1.24331905273437  0.902466152343749 1.917292109375  C 0.435592705078124 2.5248301953125  0.146858466796875 3.34129663085937  0.0899570214843735 4.21670310546875  C -0.0176700000000025 5.87152115234375  0.712724794921874 7.31393319335938  1.86622271484375 7.72477463867188  Z M 2.303596171875 6.49761666992188  C 1.79604029296875 6.31686916015625  1.31558604492188 5.44589966796875  1.389935625 4.30154556640625  C 1.42974864257813 3.69014008789063  1.62848387695313 3.11033322265625  1.93529586914063 2.71151360351563  C 2.08141678710938 2.52114268554687  2.38289241210938 2.20548669921875  2.75772826171875 2.2299501171875  C 2.81738780273438 2.23396739257812  2.87428921875 2.24580936523438  2.93179025390625 2.26628547851562  C 3.43931616210937 2.4470329296875  3.920040234375 3.31740283203125  3.84548077148438 4.4613672265625  C 3.76267690429687 5.72998709960938  3.0580346484375 6.57187630859375  2.47768813476563 6.53398200195312  C 2.41802859375 6.5299647265625  2.36112717773437 6.51812275390625  2.303596171875 6.49761666992188  Z " fill-rule="nonzero" fill="#666666" stroke="none" transform="matrix(1 0 0 1 28 429 )" />
  </g>
</svg>