<?xml version="1.0" encoding="utf-8"?>
<svg version="1.1" xmlns:xlink="http://www.w3.org/1999/xlink" width="30px" height="24px" xmlns="http://www.w3.org/2000/svg">
  <g transform="matrix(1 0 0 1 -13 -526 )">
    <path d="M 9.63 10.68  C 9.81 10.95  10.56 12.09  14.34 17.49  L 14.37 17.52  C 14.58 17.79  14.94 17.97  15.27 17.97  C 15.63 17.97  15.99 17.79  16.17 17.49  C 17.79 15.15  20.85 10.74  20.97 10.59  L 21 10.56  C 21.63 9.51  21.99 8.28  21.99 7.05  C 21.99 3.36  18.99 0.330000000000002  15.27 0.330000000000002  C 11.55 0.330000000000002  8.55 3.33  8.55 7.05  C 8.55 8.34  8.91 9.57  9.63 10.68  Z M 10.2 7.08  C 10.23 4.32  12.48 2.04  15.24 2.04  C 18 2.04  20.25 4.29  20.25 7.05  C 20.25 7.95  20.01 8.82  19.53 9.66  C 19.35 9.93  16.89 13.47  15.27 15.81  C 14.01 14.01  11.28 10.08  11.01 9.72  C 10.5 8.94  10.2 8.01  10.2 7.08  Z M 11.52 7.08  C 11.52 9.12  13.17 10.8  15.24 10.8  C 17.28 10.8  18.96 9.12  18.96 7.08  C 18.96 5.04  17.28 3.36  15.24 3.36  C 13.2 3.36  11.52 5.04  11.52 7.08  Z M 13.23 7.05  C 13.23 5.94  14.13 5.04  15.24 5.04  C 16.35 5.04  17.25 5.94  17.25 7.05  C 17.25 8.19  16.35 9.06  15.24 9.06  C 14.13 9.06  13.23 8.16  13.23 7.05  Z M 29.76 22.2  C 30.15 21.33  30.06 20.31  29.49 19.53  L 25.32 11.46  L 21.87 11.46  L 20.52 13.2  L 24.27 13.2  L 28.08 20.49  L 28.14 20.55  C 28.35 20.82  28.35 21.18  28.2 21.48  C 28.05 21.78  27.75 21.96  27.39 22  L 2.64 22  C 2.28 21.96  1.98 21.78  1.83 21.48  C 1.68 21.15  1.71 20.82  1.92 20.52  L 1.95 20.49  L 5.7 13.17  L 9.96 13.17  L 8.55 11.43  L 4.65 11.43  L 0.479999999999999 19.53  C -0.0900000000000012 20.34  -0.150000000000001 21.36  0.299999999999999 22.2  C 0.779999999999999 23.1  1.65 23.64  2.67 23.64  L 27.42 23.64  C 28.41 23.64  29.31 23.1  29.76 22.2  Z " fill-rule="nonzero" fill="#666666" stroke="none" transform="matrix(1 0 0 1 13 526 )" />
  </g>
</svg>