<?xml version="1.0" encoding="utf-8"?>
<svg version="1.1" xmlns:xlink="http://www.w3.org/1999/xlink" width="28px" height="28px" xmlns="http://www.w3.org/2000/svg">
  <g transform="matrix(1 0 0 1 -33 -180 )">
    <path d="M 18.6841928515625 10.2481102050781  C 18.6841928515625 10.7671762402344  18.2659163574219 11.1854527050781  17.7468503222656 11.1854527050781  L 10.2481102050781 11.1854527050781  C 9.72904419921875 11.1854527050781  9.31076767578125 10.7671762109375  9.31076767578125 10.2481101757812  C 9.31076767578125 9.729044140625  9.72904416992188 9.31076764648438  10.2481102050781 9.31076764648438  L 17.7468503222656 9.31076767578125  C 18.265916328125 9.31076767578125  18.6841928515625 9.72904416992188  18.6841928515625 10.2481102050781  Z M 16.9052578613281 13.9974802636719  C 16.9052578613281 14.5165462988281  16.4869813671875 14.9348227929688  15.9679153320313 14.9348227929688  L 10.2481102050781 14.9348227929688  C 9.72904419921875 14.9348227929688  9.31076767578125 14.5165462988281  9.31076767578125 13.9974802636719  C 9.31076767578125 13.4784142285156  9.73408364257813 13.060137734375  10.2481102050781 13.060137734375  L 15.9679153320313 13.060137734375  C 16.4869813378906 13.060137734375  16.9052578613281 13.4784142285156  16.9052578613281 13.9974802636719  Z M 14.2897699121094 23.3658659667969  C 21.4206282617188 23.260036953125  27.1908281445312 18.2659163574219  27.1908281445312 12.122795234375  C 27.1908281445312 5.91920041015625  21.3047203027344 0.874685029296874  14.0680329101563 0.874685029296874  C 6.83134551757813 0.874685029296874  0.940198232421875 5.91920041015625  0.940198232421875 12.122795234375  C 0.940198232421875 15.5345204199219  2.78464639648437 18.7446665527344  6.00487150390625 20.9317990917969  C 6.43322694335937 21.2240886816406  7.01780615234375 21.1132202246094  7.30505629882812 20.6848647851563  C 7.59734588867187 20.2565093457031  7.48647743164062 19.6719301367188  7.0581219921875 19.3846799902344  C 4.36200239257812 17.5553502441406  2.81488329101562 14.9096254003906  2.81488329101562 12.1278347070313  C 2.81488329101562 6.95733245117187  7.859398671875 2.75440953125  14.0629934960938 2.75440953125  C 20.2665883203125 2.75440953125  25.3111037011719 6.96237189453125  25.3111037011719 12.1278347070313  C 25.3111037011719 17.2932975195312  20.2665883203125 21.5012598828125  14.0629934960938 21.5012598828125  C 14.0025197949219 21.5012598828125  13.9571645117188 21.5214177734375  13.9017302539063 21.5365362207031  C 13.4582563671875 21.4559045996094  13.0097430078125 21.6877204882813  12.8535192675781 22.1261549023438  C 12.6720981347656 22.6351419628906  11.4928607714844 23.4918528710937  10.0969259667969 24.2880900488281  C 10.6059130273438 22.5847472070312  10.3640181933594 22.21686546875  10.1977154785156 21.9749706054687  C 10.0011759277344 21.682681015625  9.67361 21.5062993554687  9.3208466796875 21.5062993554687  C 8.80178067382813 21.5062993554687  8.38350415039063 21.9245758496094  8.38350415039063 22.4436418847656  C 8.38350415039063 22.6149840722656  8.42885943359375 22.7712078125  8.5094910546875 22.9123131347656  C 8.413741015625 23.4464975878906  8.00554346679688 24.6962875976563  7.54191168945313 25.8352091503906  C 7.39576689453125 26.1879724707031  7.48143798828125 26.5961700195313  7.75860916015625 26.8632622460938  C 7.9349908203125 27.0346044335937  8.17184618164063 27.125315  8.40870154296875 27.125315  C 8.53468844726563 27.125315  8.66571482421875 27.1001176074219  8.79170169921875 27.0446833789063  C 9.86007057617188 26.5659331542969  13.1155720214844 25.0188140820313  14.2897699121094 23.3658659667969  Z " fill-rule="nonzero" fill="#fd994b" stroke="none" transform="matrix(1 0 0 1 33 180 )" />
  </g>
</svg>