<?xml version="1.0" encoding="utf-8"?>
<svg version="1.1" xmlns:xlink="http://www.w3.org/1999/xlink" width="28px" height="28px" xmlns="http://www.w3.org/2000/svg">
  <g transform="matrix(1 0 0 1 -315 -180 )">
    <path d="M 26.8229464355469 11.7952293066406  C 27.0698807421875 11.5432554980469  27.1555518359375 11.1753737597656  27.0446833496094 10.842768359375  C 26.9338148925781 10.5101629589844  26.6465647460937 10.2682680957031  26.2988409277344 10.2128338671875  L 18.3767848144531 8.98824122070312  L 14.8390727246094 1.41390895507812  C 14.682848984375 1.08634302734375  14.3552830273437 0.874685029296875  13.9924407617188 0.874685029296875  C 13.6295984960938 0.874685029296875  13.3020325683594 1.0813035546875  13.1458087988281 1.41390895507812  L 9.57785987304688 8.97312280273438  L 1.64068537109375 10.1674785839844  C 1.2929615234375 10.2178733398438  1.00571140625 10.4597681738281  0.8898034765625 10.7923736035156  C 0.773895546875 11.1249790332031  0.859566611328125 11.4928607421875  1.10650094726563 11.7448345507812  L 6.8615823828125 17.6662187011719  L 5.48580546875 26.01159078125  C 5.42533176757813 26.3643541015625  5.57651603515625 26.7221568945313  5.868805625 26.928775390625  C 6.16109521484375 27.1353939160156  6.54913487304688 27.1555518066406  6.8615823828125 26.9842096191406  L 13.9470855078125 23.088694765625  L 21.0174701855469 27.0094070117187  C 21.1585755078125 27.0849991601562  21.3147992773438 27.1253149707031  21.4710230175781 27.1253149707031  C 21.4760624902344 27.1253149707031  21.4861414355469 27.1253149707031  21.4911809082031 27.1253149707031  C 22.0102469140625 27.1253149707031  22.4285234375 26.7070384765625  22.4285234375 26.1879724414062  C 22.4285234375 26.0720644824219  22.408365546875 25.9611960253906  22.3680497363281 25.8553670410156  L 21.0527465234375 17.69141609375  L 26.8229464355469 11.7952293066406  Z " fill-rule="nonzero" fill="#fd994b" stroke="none" transform="matrix(1 0 0 1 315 180 )" />
  </g>
</svg>